<?xml version="1.0" encoding="utf-8"?>
<!-- Generator: Adobe Illustrator 22.1.0, SVG Export Plug-In . SVG Version: 6.00 Build 0)  -->
<svg version="1.1" id="Layer_1" xmlns="http://www.w3.org/2000/svg" xmlns:xlink="http://www.w3.org/1999/xlink" x="0px" y="0px"
	 viewBox="0 0 1090 400" style="enable-background:new 0 0 1090 400;" xml:space="preserve">
<style type="text/css">
	.st0{fill:#603DE0;}
	.st1{fill:#FFFFFF;}
	.st2{fill:none;stroke:#FFFFFF;stroke-miterlimit:10;}
</style>
<g>
	<rect class="st0" width="1090" height="400"/>
</g>
<g>
	<path class="st1" d="M241.2,67.7c-0.3,0.6-1.1,0.9-1.7,0.6c-0.6-0.3-0.9-1.1-0.6-1.7c0.3-0.6,1.1-0.9,1.7-0.6
		C241.3,66.2,241.5,67,241.2,67.7z"/>
	<path class="st1" d="M292,93.4c-0.3,0.6-1.1,0.9-1.7,0.6c-0.6-0.3-0.9-1.1-0.6-1.7c0.3-0.6,1.1-0.9,1.7-0.6
		C292.1,92,292.3,92.8,292,93.4z"/>
	<path class="st1" d="M342.8,119.2c-0.3,0.6-1.1,0.9-1.7,0.6c-0.6-0.3-0.9-1.1-0.6-1.7c0.3-0.6,1.1-0.9,1.7-0.6
		C342.8,117.8,343.1,118.5,342.8,119.2z"/>
	<path class="st1" d="M393.6,144.9c-0.3,0.6-1.1,0.9-1.7,0.6c-0.6-0.3-0.9-1.1-0.6-1.7c0.3-0.6,1.1-0.9,1.7-0.6
		C393.6,143.5,393.9,144.3,393.6,144.9z"/>
	<path class="st1" d="M444.3,170.7c-0.3,0.6-1.1,0.9-1.7,0.6c-0.6-0.3-0.9-1.1-0.6-1.7c0.3-0.6,1.1-0.9,1.7-0.6
		C444.4,169.3,444.7,170,444.3,170.7z"/>
	<path class="st1" d="M495.1,196.4c-0.3,0.6-1.1,0.9-1.7,0.6c-0.6-0.3-0.9-1.1-0.6-1.7c0.3-0.6,1.1-0.9,1.7-0.6
		C495.2,195,495.5,195.8,495.1,196.4z"/>
	<path class="st1" d="M545.9,222.2c-0.3,0.6-1.1,0.9-1.7,0.6c-0.6-0.3-0.9-1.1-0.6-1.7c0.3-0.6,1.1-0.9,1.7-0.6
		C546,220.8,546.2,221.6,545.9,222.2z"/>
	<path class="st1" d="M596.7,248c-0.3,0.6-1.1,0.9-1.7,0.6c-0.6-0.3-0.9-1.1-0.6-1.7c0.3-0.6,1.1-0.9,1.7-0.6
		C596.8,246.5,597,247.3,596.7,248z"/>
	<path class="st1" d="M647.5,273.7c-0.3,0.6-1.1,0.9-1.7,0.6c-0.6-0.3-0.9-1.1-0.6-1.7c0.3-0.6,1.1-0.9,1.7-0.6
		C647.6,272.3,647.8,273.1,647.5,273.7z"/>
	<path class="st1" d="M215.4,118.5c-0.3,0.6-1.1,0.9-1.7,0.6c-0.6-0.3-0.9-1.1-0.6-1.7c0.3-0.6,1.1-0.9,1.7-0.6
		C215.5,117,215.8,117.8,215.4,118.5z"/>
	<path class="st1" d="M266.2,144.2c-0.3,0.6-1.1,0.9-1.7,0.6c-0.6-0.3-0.9-1.1-0.6-1.7c0.3-0.6,1.1-0.9,1.7-0.6
		C266.3,142.8,266.6,143.6,266.2,144.2z"/>
	<path class="st1" d="M317,170c-0.3,0.6-1.1,0.9-1.7,0.6c-0.6-0.3-0.9-1.1-0.6-1.7c0.3-0.6,1.1-0.9,1.7-0.6
		C317.1,168.5,317.3,169.3,317,170z"/>
	<path class="st1" d="M367.8,195.7c-0.3,0.6-1.1,0.9-1.7,0.6c-0.6-0.3-0.9-1.1-0.6-1.7c0.3-0.6,1.1-0.9,1.7-0.6
		C367.9,194.3,368.1,195.1,367.8,195.7z"/>
	<path class="st1" d="M418.6,221.5c-0.3,0.6-1.1,0.9-1.7,0.6c-0.6-0.3-0.9-1.1-0.6-1.7c0.3-0.6,1.1-0.9,1.7-0.6
		S418.9,220.8,418.6,221.5z"/>
	<path class="st1" d="M469.4,247.2c-0.3,0.6-1.1,0.9-1.7,0.6c-0.6-0.3-0.9-1.1-0.6-1.7c0.3-0.6,1.1-0.9,1.7-0.6
		C469.4,245.8,469.7,246.6,469.4,247.2z"/>
	<path class="st1" d="M520.2,273c-0.3,0.6-1.1,0.9-1.7,0.6c-0.6-0.3-0.9-1.1-0.6-1.7c0.3-0.6,1.1-0.9,1.7-0.6
		C520.2,271.6,520.5,272.3,520.2,273z"/>
	<path class="st1" d="M571,298.7c-0.3,0.6-1.1,0.9-1.7,0.6c-0.6-0.3-0.9-1.1-0.6-1.7c0.3-0.6,1.1-0.9,1.7-0.6
		C571,297.3,571.3,298.1,571,298.7z"/>
	<path class="st1" d="M621.7,324.5c-0.3,0.6-1.1,0.9-1.7,0.6s-0.9-1.1-0.6-1.7c0.3-0.6,1.1-0.9,1.7-0.6
		C621.8,323.1,622.1,323.9,621.7,324.5z"/>
	<path class="st1" d="M189.7,169.2c-0.3,0.6-1.1,0.9-1.7,0.6c-0.6-0.3-0.9-1.1-0.6-1.7c0.3-0.6,1.1-0.9,1.7-0.6
		C189.8,167.8,190,168.6,189.7,169.2z"/>
	<path class="st1" d="M240.5,195c-0.3,0.6-1.1,0.9-1.7,0.6c-0.6-0.3-0.9-1.1-0.6-1.7c0.3-0.6,1.1-0.9,1.7-0.6
		C240.5,193.6,240.8,194.4,240.5,195z"/>
	<path class="st1" d="M291.3,220.8c-0.3,0.6-1.1,0.9-1.7,0.6c-0.6-0.3-0.9-1.1-0.6-1.7c0.3-0.6,1.1-0.9,1.7-0.6
		C291.3,219.3,291.6,220.1,291.3,220.8z"/>
	<path class="st1" d="M342,246.5c-0.3,0.6-1.1,0.9-1.7,0.6c-0.6-0.3-0.9-1.1-0.6-1.7c0.3-0.6,1.1-0.9,1.7-0.6
		C342.1,245.1,342.4,245.9,342,246.5z"/>
	<path class="st1" d="M392.8,272.3c-0.3,0.6-1.1,0.9-1.7,0.6c-0.6-0.3-0.9-1.1-0.6-1.7c0.3-0.6,1.1-0.9,1.7-0.6
		C392.9,270.8,393.2,271.6,392.8,272.3z"/>
	<path class="st1" d="M443.6,298c-0.3,0.6-1.1,0.9-1.7,0.6c-0.6-0.3-0.9-1.1-0.6-1.7c0.3-0.6,1.1-0.9,1.7-0.6
		C443.7,296.6,443.9,297.4,443.6,298z"/>
	<path class="st1" d="M494.4,323.8c-0.3,0.6-1.1,0.9-1.7,0.6c-0.6-0.3-0.9-1.1-0.6-1.7c0.3-0.6,1.1-0.9,1.7-0.6
		C494.5,322.4,494.7,323.1,494.4,323.8z"/>
	<path class="st1" d="M545.2,349.5c-0.3,0.6-1.1,0.9-1.7,0.6c-0.6-0.3-0.9-1.1-0.6-1.7c0.3-0.6,1.1-0.9,1.7-0.6
		C545.3,348.1,545.5,348.9,545.2,349.5z"/>
	<path class="st1" d="M596,375.3c-0.3,0.6-1.1,0.9-1.7,0.6c-0.6-0.3-0.9-1.1-0.6-1.7c0.3-0.6,1.1-0.9,1.7-0.6
		C596.1,373.9,596.3,374.6,596,375.3z"/>
	<path class="st1" d="M163.9,220c-0.3,0.6-1.1,0.9-1.7,0.6c-0.6-0.3-0.9-1.1-0.6-1.7c0.3-0.6,1.1-0.9,1.7-0.6
		C164,218.6,164.3,219.4,163.9,220z"/>
	<path class="st1" d="M214.7,245.8c-0.3,0.6-1.1,0.9-1.7,0.6c-0.6-0.3-0.9-1.1-0.6-1.7s1.1-0.9,1.7-0.6
		C214.8,244.4,215,245.1,214.7,245.8z"/>
	<path class="st1" d="M265.5,271.5c-0.3,0.6-1.1,0.9-1.7,0.6c-0.6-0.3-0.9-1.1-0.6-1.7s1.1-0.9,1.7-0.6
		C265.6,270.1,265.8,270.9,265.5,271.5z"/>
	<path class="st1" d="M316.3,297.3c-0.3,0.6-1.1,0.9-1.7,0.6c-0.6-0.3-0.9-1.1-0.6-1.7c0.3-0.6,1.1-0.9,1.7-0.6
		C316.4,295.9,316.6,296.7,316.3,297.3z"/>
	<circle class="st1" cx="365.9" cy="322.5" r="1.3"/>
	<path class="st1" d="M417.9,348.8c-0.3,0.6-1.1,0.9-1.7,0.6c-0.6-0.3-0.9-1.1-0.6-1.7c0.3-0.6,1.1-0.9,1.7-0.6
		C417.9,347.4,418.2,348.2,417.9,348.8z"/>
	<path class="st1" d="M468.7,374.6c-0.3,0.6-1.1,0.9-1.7,0.6c-0.6-0.3-0.9-1.1-0.6-1.7c0.3-0.6,1.1-0.9,1.7-0.6
		C468.7,373.1,469,373.9,468.7,374.6z"/>
	<path class="st1" d="M519.4,400.3c-0.3,0.6-1.1,0.9-1.7,0.6c-0.6-0.3-0.9-1.1-0.6-1.7c0.3-0.6,1.1-0.9,1.7-0.6
		C519.5,398.9,519.8,399.7,519.4,400.3z"/>
	<path class="st1" d="M570.2,426.1c-0.3,0.6-1.1,0.9-1.7,0.6c-0.6-0.3-0.9-1.1-0.6-1.7c0.3-0.6,1.1-0.9,1.7-0.6
		C570.3,424.7,570.6,425.4,570.2,426.1z"/>
	<path class="st1" d="M138.2,270.8c-0.3,0.6-1.1,0.9-1.7,0.6c-0.6-0.3-0.9-1.1-0.6-1.7c0.3-0.6,1.1-0.9,1.7-0.6
		C138.2,269.4,138.5,270.2,138.2,270.8z"/>
	<path class="st1" d="M189,296.6c-0.3,0.6-1.1,0.9-1.7,0.6c-0.6-0.3-0.9-1.1-0.6-1.7c0.3-0.6,1.1-0.9,1.7-0.6
		C189,295.1,189.3,295.9,189,296.6z"/>
	<path class="st1" d="M239.7,322.3c-0.3,0.6-1.1,0.9-1.7,0.6c-0.6-0.3-0.9-1.1-0.6-1.7c0.3-0.6,1.1-0.9,1.7-0.6
		C239.8,320.9,240.1,321.7,239.7,322.3z"/>
	<path class="st1" d="M290.5,348.1c-0.3,0.6-1.1,0.9-1.7,0.6c-0.6-0.3-0.9-1.1-0.6-1.7c0.3-0.6,1.1-0.9,1.7-0.6
		C290.6,346.7,290.9,347.4,290.5,348.1z"/>
	<path class="st1" d="M341.3,373.8c-0.3,0.6-1.1,0.9-1.7,0.6s-0.9-1.1-0.6-1.7c0.3-0.6,1.1-0.9,1.7-0.6S341.6,373.2,341.3,373.8z"/>
	<path class="st1" d="M392.1,399.6c-0.3,0.6-1.1,0.9-1.7,0.6c-0.6-0.3-0.9-1.1-0.6-1.7c0.3-0.6,1.1-0.9,1.7-0.6
		C392.2,398.2,392.4,399,392.1,399.6z"/>
	<path class="st1" d="M442.9,425.3c-0.3,0.6-1.1,0.9-1.7,0.6c-0.6-0.3-0.9-1.1-0.6-1.7c0.3-0.6,1.1-0.9,1.7-0.6
		C443,423.9,443.2,424.7,442.9,425.3z"/>
	<path class="st1" d="M493.7,451.1c-0.3,0.6-1.1,0.9-1.7,0.6c-0.6-0.3-0.9-1.1-0.6-1.7c0.3-0.6,1.1-0.9,1.7-0.6
		C493.8,449.7,494,450.5,493.7,451.1z"/>
	<path class="st1" d="M544.5,476.9c-0.3,0.6-1.1,0.9-1.7,0.6c-0.6-0.3-0.9-1.1-0.6-1.7c0.3-0.6,1.1-0.9,1.7-0.6
		C544.5,475.4,544.8,476.2,544.5,476.9z"/>
	<path class="st1" d="M112.4,321.6c-0.3,0.6-1.1,0.9-1.7,0.6c-0.6-0.3-0.9-1.1-0.6-1.7c0.3-0.6,1.1-0.9,1.7-0.6
		C112.5,320.2,112.7,321,112.4,321.6z"/>
	<path class="st1" d="M163.2,347.4c-0.3,0.6-1.1,0.9-1.7,0.6c-0.6-0.3-0.9-1.1-0.6-1.7c0.3-0.6,1.1-0.9,1.7-0.6
		C163.3,345.9,163.5,346.7,163.2,347.4z"/>
	<path class="st1" d="M214,373.1c-0.3,0.6-1.1,0.9-1.7,0.6c-0.6-0.3-0.9-1.1-0.6-1.7c0.3-0.6,1.1-0.9,1.7-0.6
		C214.1,371.7,214.3,372.5,214,373.1z"/>
	<path class="st1" d="M264.8,398.9c-0.3,0.6-1.1,0.9-1.7,0.6c-0.6-0.3-0.9-1.1-0.6-1.7c0.3-0.6,1.1-0.9,1.7-0.6
		C264.8,397.4,265.1,398.2,264.8,398.9z"/>
	<path class="st1" d="M315.6,424.6c-0.3,0.6-1.1,0.9-1.7,0.6c-0.6-0.3-0.9-1.1-0.6-1.7c0.3-0.6,1.1-0.9,1.7-0.6
		C315.6,423.2,315.9,424,315.6,424.6z"/>
	<path class="st1" d="M366.4,450.4c-0.3,0.6-1.1,0.9-1.7,0.6c-0.6-0.3-0.9-1.1-0.6-1.7c0.3-0.6,1.1-0.9,1.7-0.6
		C366.4,449,366.7,449.7,366.4,450.4z"/>
	<path class="st1" d="M417.1,476.1c-0.3,0.6-1.1,0.9-1.7,0.6c-0.6-0.3-0.9-1.1-0.6-1.7c0.3-0.6,1.1-0.9,1.7-0.6
		C417.2,474.7,417.5,475.5,417.1,476.1z"/>
	<path class="st1" d="M467.9,501.9c-0.3,0.6-1.1,0.9-1.7,0.6c-0.6-0.3-0.9-1.1-0.6-1.7c0.3-0.6,1.1-0.9,1.7-0.6
		C468,500.5,468.3,501.3,467.9,501.9z"/>
	<path class="st1" d="M518.7,527.6c-0.3,0.6-1.1,0.9-1.7,0.6c-0.6-0.3-0.9-1.1-0.6-1.7c0.3-0.6,1.1-0.9,1.7-0.6S519,527,518.7,527.6
		z"/>
	<path class="st1" d="M86.7,372.4c-0.3,0.6-1.1,0.9-1.7,0.6c-0.6-0.3-0.9-1.1-0.6-1.7c0.3-0.6,1.1-0.9,1.7-0.6
		C86.7,371,87,371.7,86.7,372.4z"/>
	<path class="st1" d="M137.4,398.1c-0.3,0.6-1.1,0.9-1.7,0.6c-0.6-0.3-0.9-1.1-0.6-1.7c0.3-0.6,1.1-0.9,1.7-0.6
		C137.5,396.7,137.8,397.5,137.4,398.1z"/>
	<path class="st1" d="M188.2,423.9c-0.3,0.6-1.1,0.9-1.7,0.6c-0.6-0.3-0.9-1.1-0.6-1.7c0.3-0.6,1.1-0.9,1.7-0.6
		C188.3,422.5,188.6,423.3,188.2,423.9z"/>
	<path class="st1" d="M239,449.7c-0.3,0.6-1.1,0.9-1.7,0.6c-0.6-0.3-0.9-1.1-0.6-1.7c0.3-0.6,1.1-0.9,1.7-0.6
		C239.1,448.2,239.3,449,239,449.7z"/>
	<path class="st1" d="M289.8,475.4c-0.3,0.6-1.1,0.9-1.7,0.6s-0.9-1.1-0.6-1.7c0.3-0.6,1.1-0.9,1.7-0.6S290.1,474.8,289.8,475.4z"/>
	<path class="st1" d="M340.6,501.2c-0.3,0.6-1.1,0.9-1.7,0.6c-0.6-0.3-0.9-1.1-0.6-1.7c0.3-0.6,1.1-0.9,1.7-0.6
		C340.7,499.7,340.9,500.5,340.6,501.2z"/>
	<path class="st1" d="M391.4,526.9c-0.3,0.6-1.1,0.9-1.7,0.6c-0.6-0.3-0.9-1.1-0.6-1.7c0.3-0.6,1.1-0.9,1.7-0.6
		C391.5,525.5,391.7,526.3,391.4,526.9z"/>
	<path class="st1" d="M442.2,552.7c-0.3,0.6-1.1,0.9-1.7,0.6c-0.6-0.3-0.9-1.1-0.6-1.7c0.3-0.6,1.1-0.9,1.7-0.6
		C442.2,551.3,442.5,552,442.2,552.7z"/>
	<path class="st1" d="M493,578.4c-0.3,0.6-1.1,0.9-1.7,0.6c-0.6-0.3-0.9-1.1-0.6-1.7c0.3-0.6,1.1-0.9,1.7-0.6
		C493,577,493.3,577.8,493,578.4z"/>
</g>
<g>
	<path class="st2" d="M1081.7,4c0,0-159.1-37.4-207.2,119.6C840,236.4,837,297.8,765.5,328.8S652.3,366.4,648,399.9"/>
	<path class="st2" d="M836,399.9c0,0-42-104.3,68.8-158.7c74.8-36.8,39.7-161.6,88.2-201.4c38.5-31.5,88.6,36.5,88.6,36.5"/>
	<path class="st2" d="M868.8,428.1c0,0,1.3-80.6,86.7-133.5s52-144.2,101.2-158.1c49.1-13.9,98.3,45.9,98.3,45.9"/>
	<path class="st2" d="M928.9,399.3c0,0-6.4-66.2,58.8-74.8c65.2-8.5,120.7,63.9,120.7,63.9"/>
</g>
</svg>
