<svg xmlns="http://www.w3.org/2000/svg" viewBox="0 0 299.83 260.84"><defs><style>.cls-1{fill:#97d3d3;}.cls-2{opacity:0.8;}.cls-3{fill:#ffdc96;}.cls-4{fill:#603de0;}.cls-16,.cls-5{fill:#fff;}.cls-5{stroke:#fff;stroke-miterlimit:10;stroke-width:0.5px;}.cls-6{fill:#74818e;}.cls-7{fill:#fda080;}.cls-8{fill:#f4907c;}.cls-9{fill:#d4d2d1;}.cls-10,.cls-12{fill:gray;}.cls-10,.cls-11{opacity:0.4;}.cls-13{fill:#e5e5e5;}.cls-14{fill:#666;}.cls-15{fill:#cbcbcb;}.cls-17{fill:#a5b4c2;}.cls-18{fill:#eac9b8;}.cls-19{fill:#c4ccd7;}.cls-20{fill:#fad1b1;}.cls-21{fill:#647889;}.cls-22{fill:#f8fbfc;}.cls-23{fill:#fdf5ea;}.cls-24{fill:#f39475;}.cls-25{fill:#e74a5f;}.cls-26{fill:#c9364f;}.cls-27{fill:#393f4b;}.cls-28{fill:#11114e;}.cls-29{fill:#543bcc;}.cls-30{fill:#6f251e;}.cls-31{fill:#e28166;}.cls-32{fill:#93603d;}.cls-33{fill:#a4704c;}.cls-34{opacity:0.5;}.cls-35{fill:#f9e1df;}</style></defs><title>hero</title><g id="Layer_2" data-name="Layer 2"><path class="cls-1" d="M241.48,42.79c-15.62,4.3-32.15,2.59-48.33,1.86s-33.23-.21-47.27,7.86c-10.41,6-18.53,15.8-29.72,20.15-8.25,3.21-17.35,3.13-26.2,3.4s-18.08,1.07-25.61,5.72-12.69,14.29-9.51,22.55c4.23,11,18.78,12.72,30.55,12.66L249,116.24c16.61-.07,35-.81,47-12.24s13.78-31.12,8.26-47c-3.46-10-14.61-34.8-27-35.93-7.74-.7-11,7-16.15,11.43A51,51,0,0,1,241.48,42.79Z" transform="translate(-21.17 -16.3)"/><g class="cls-2"><path class="cls-3" d="M33,127.67c-5.63,10.68-4.94,23.54-2.87,35.43s5.39,23.77,4.54,35.81c-.89,12.61-6.3,24.5-7.79,37.05-1.09,9.3.11,19.11,4.92,27.14s13.56,14,22.93,14c16.58,0,27.53-16.69,35.31-31.33l29.19-55C127,176.24,134.93,160,130.87,144c-3.4-13.32-15-23.5-28-28C84.57,109.75,43.64,107.55,33,127.67Z" transform="translate(-21.17 -16.3)"/></g><path class="cls-4" d="M218.48,228.09a27.39,27.39,0,0,1,18-39.9,56.11,56.11,0,0,1,8.85-1.05c4.53-.3,9.21-.6,13.29-2.64s7.14-5.57,10.11-9c2.51-2.91,5.12-5.92,8.35-8.05,6.06-4,15.7-4.08,22.43-.2,5.05,2.92,7.66,7.51,7.34,12.94-.79,13.22-11.73,29.07-20.78,40s-18.57,17.91-28.68,21.08c-12.42,3.91-25.72,1.36-33.87-6.49A26.46,26.46,0,0,1,218.48,228.09ZM305,173.3a14.39,14.39,0,0,0-5.71-5.69c-6.6-3.82-16.06-3.74-22,.18-3.19,2.1-5.78,5.09-8.28,8-3,3.46-6.08,7-10.22,9.1s-8.88,2.38-13.45,2.68a56.24,56.24,0,0,0-8.79,1,27.1,27.1,0,0,0-12.76,45.93c8,7.74,21.17,10.25,33.46,6.39,10-3.15,19.61-10.2,28.49-20.95,9-10.91,19.9-26.68,20.68-39.8A12.89,12.89,0,0,0,305,173.3Z" transform="translate(-21.17 -16.3)"/><path class="cls-4" d="M47.59,134.84a.22.22,0,0,1-.29.1.23.23,0,0,1-.1-.3.22.22,0,0,1,.3-.09A.21.21,0,0,1,47.59,134.84Z" transform="translate(-21.17 -16.3)"/><path class="cls-4" d="M56.14,139.18a.22.22,0,0,1-.39-.2.22.22,0,1,1,.39.2Z" transform="translate(-21.17 -16.3)"/><path class="cls-4" d="M64.69,143.51a.22.22,0,1,1-.39-.2.21.21,0,0,1,.29-.09A.22.22,0,0,1,64.69,143.51Z" transform="translate(-21.17 -16.3)"/><path class="cls-4" d="M73.24,147.85a.23.23,0,0,1-.3.09.21.21,0,0,1-.09-.29.22.22,0,0,1,.29-.1A.23.23,0,0,1,73.24,147.85Z" transform="translate(-21.17 -16.3)"/><path class="cls-4" d="M81.79,152.18a.23.23,0,0,1-.3.1.22.22,0,0,1-.09-.3.21.21,0,0,1,.29-.09A.22.22,0,0,1,81.79,152.18Z" transform="translate(-21.17 -16.3)"/><path class="cls-4" d="M90.33,156.52a.21.21,0,0,1-.29.09.22.22,0,0,1-.1-.29.23.23,0,0,1,.3-.1A.22.22,0,0,1,90.33,156.52Z" transform="translate(-21.17 -16.3)"/><path class="cls-4" d="M98.88,160.85a.22.22,0,0,1-.29.1.23.23,0,0,1-.1-.3.23.23,0,0,1,.3-.09A.21.21,0,0,1,98.88,160.85Z" transform="translate(-21.17 -16.3)"/><path class="cls-4" d="M107.43,165.19a.21.21,0,0,1-.29.09.22.22,0,0,1-.1-.29.23.23,0,0,1,.3-.1A.23.23,0,0,1,107.43,165.19Z" transform="translate(-21.17 -16.3)"/><path class="cls-4" d="M116,169.52a.22.22,0,0,1-.29.1.23.23,0,0,1-.1-.3.22.22,0,0,1,.39.2Z" transform="translate(-21.17 -16.3)"/><path class="cls-4" d="M43.26,143.39a.22.22,0,0,1-.3.09.21.21,0,0,1-.09-.29.22.22,0,0,1,.29-.1A.23.23,0,0,1,43.26,143.39Z" transform="translate(-21.17 -16.3)"/><path class="cls-4" d="M51.81,147.72a.23.23,0,0,1-.3.1.21.21,0,0,1-.09-.29.22.22,0,0,1,.29-.1A.22.22,0,0,1,51.81,147.72Z" transform="translate(-21.17 -16.3)"/><path class="cls-4" d="M60.35,152.06a.2.2,0,0,1-.29.09.22.22,0,0,1-.1-.29.23.23,0,0,1,.3-.1A.22.22,0,0,1,60.35,152.06Z" transform="translate(-21.17 -16.3)"/><path class="cls-4" d="M68.9,156.39a.22.22,0,0,1-.29.1.22.22,0,0,1-.1-.29.23.23,0,0,1,.3-.1A.21.21,0,0,1,68.9,156.39Z" transform="translate(-21.17 -16.3)"/><path class="cls-4" d="M77.45,160.73a.22.22,0,0,1-.29.1.23.23,0,0,1-.1-.3.22.22,0,0,1,.3-.09A.21.21,0,0,1,77.45,160.73Z" transform="translate(-21.17 -16.3)"/><path class="cls-4" d="M86,165.06a.21.21,0,0,1-.29.1.21.21,0,0,1-.1-.29.22.22,0,0,1,.29-.1A.22.22,0,0,1,86,165.06Z" transform="translate(-21.17 -16.3)"/><path class="cls-4" d="M94.55,169.4a.23.23,0,0,1-.3.1.23.23,0,0,1-.09-.3.2.2,0,0,1,.29-.09A.22.22,0,0,1,94.55,169.4Z" transform="translate(-21.17 -16.3)"/><path class="cls-4" d="M103.1,173.73a.22.22,0,0,1-.3.1.21.21,0,0,1-.09-.29.22.22,0,0,1,.29-.1A.22.22,0,0,1,103.1,173.73Z" transform="translate(-21.17 -16.3)"/><path class="cls-4" d="M111.64,178.07a.22.22,0,0,1-.29.1.23.23,0,0,1-.1-.3.22.22,0,0,1,.3-.09A.2.2,0,0,1,111.64,178.07Z" transform="translate(-21.17 -16.3)"/><path class="cls-4" d="M38.92,151.94a.21.21,0,0,1-.29.09.22.22,0,0,1-.1-.29.23.23,0,0,1,.3-.1A.23.23,0,0,1,38.92,151.94Z" transform="translate(-21.17 -16.3)"/><path class="cls-4" d="M47.47,156.27a.22.22,0,0,1-.29.1.23.23,0,0,1-.1-.3.22.22,0,0,1,.29-.09A.21.21,0,0,1,47.47,156.27Z" transform="translate(-21.17 -16.3)"/><path class="cls-4" d="M56,160.61a.22.22,0,0,1-.29.09.21.21,0,0,1-.1-.29.22.22,0,0,1,.29-.1A.23.23,0,0,1,56,160.61Z" transform="translate(-21.17 -16.3)"/><path class="cls-4" d="M64.57,164.94a.23.23,0,0,1-.3.1.23.23,0,0,1-.09-.3.21.21,0,0,1,.29-.09A.22.22,0,0,1,64.57,164.94Z" transform="translate(-21.17 -16.3)"/><path class="cls-4" d="M73.12,169.28a.22.22,0,0,1-.3.09.2.2,0,0,1-.09-.29A.22.22,0,0,1,73,169,.23.23,0,0,1,73.12,169.28Z" transform="translate(-21.17 -16.3)"/><path class="cls-4" d="M81.66,173.61a.22.22,0,0,1-.29.1.22.22,0,1,1,.2-.39A.21.21,0,0,1,81.66,173.61Z" transform="translate(-21.17 -16.3)"/><path class="cls-4" d="M90.21,178a.2.2,0,0,1-.29.09.22.22,0,0,1-.1-.29.23.23,0,0,1,.3-.1A.23.23,0,0,1,90.21,178Z" transform="translate(-21.17 -16.3)"/><path class="cls-4" d="M98.76,182.28a.22.22,0,0,1-.29.1.22.22,0,1,1,.2-.39A.21.21,0,0,1,98.76,182.28Z" transform="translate(-21.17 -16.3)"/><path class="cls-4" d="M107.31,186.62a.21.21,0,0,1-.29.09.22.22,0,0,1-.1-.29.22.22,0,0,1,.29-.1A.23.23,0,0,1,107.31,186.62Z" transform="translate(-21.17 -16.3)"/><path class="cls-4" d="M34.59,160.49a.23.23,0,0,1-.3.09.21.21,0,0,1-.09-.29.22.22,0,0,1,.29-.1A.23.23,0,0,1,34.59,160.49Z" transform="translate(-21.17 -16.3)"/><path class="cls-4" d="M43.14,164.82a.23.23,0,0,1-.3.1.22.22,0,0,1-.09-.3.21.21,0,0,1,.29-.09A.22.22,0,0,1,43.14,164.82Z" transform="translate(-21.17 -16.3)"/><path class="cls-4" d="M51.68,169.16a.21.21,0,0,1-.29.09.22.22,0,0,1-.1-.29.23.23,0,0,1,.3-.1A.22.22,0,0,1,51.68,169.16Z" transform="translate(-21.17 -16.3)"/><path class="cls-4" d="M60.23,173.49a.22.22,0,0,1-.29.1.23.23,0,0,1-.1-.3.23.23,0,0,1,.3-.09A.21.21,0,0,1,60.23,173.49Z" transform="translate(-21.17 -16.3)"/><circle class="cls-4" cx="47.42" cy="161.42" r="0.22"/><path class="cls-4" d="M77.33,182.16a.22.22,0,1,1-.39-.2.22.22,0,0,1,.39.2Z" transform="translate(-21.17 -16.3)"/><path class="cls-4" d="M85.88,186.5a.23.23,0,0,1-.3.09.21.21,0,0,1-.09-.29.22.22,0,0,1,.29-.1A.23.23,0,0,1,85.88,186.5Z" transform="translate(-21.17 -16.3)"/><path class="cls-4" d="M94.43,190.83a.23.23,0,0,1-.3.1.22.22,0,0,1-.09-.3.21.21,0,0,1,.29-.09A.22.22,0,0,1,94.43,190.83Z" transform="translate(-21.17 -16.3)"/><path class="cls-4" d="M103,195.17a.21.21,0,0,1-.29.09.22.22,0,0,1-.1-.29.23.23,0,0,1,.3-.1A.22.22,0,0,1,103,195.17Z" transform="translate(-21.17 -16.3)"/><path class="cls-4" d="M30.25,169a.22.22,0,0,1-.29.1.22.22,0,0,1-.1-.29.23.23,0,0,1,.3-.1A.21.21,0,0,1,30.25,169Z" transform="translate(-21.17 -16.3)"/><path class="cls-4" d="M38.8,173.37a.22.22,0,0,1-.29.1.23.23,0,0,1-.1-.3.21.21,0,0,1,.29-.09A.22.22,0,0,1,38.8,173.37Z" transform="translate(-21.17 -16.3)"/><path class="cls-4" d="M47.35,177.7a.23.23,0,0,1-.3.1.22.22,0,0,1,.2-.39A.22.22,0,0,1,47.35,177.7Z" transform="translate(-21.17 -16.3)"/><path class="cls-4" d="M55.9,182a.23.23,0,0,1-.3.1.23.23,0,0,1-.09-.3.2.2,0,0,1,.29-.09A.22.22,0,0,1,55.9,182Z" transform="translate(-21.17 -16.3)"/><path class="cls-4" d="M64.45,186.37a.22.22,0,0,1-.3.1.21.21,0,0,1-.09-.29.22.22,0,0,1,.29-.1A.22.22,0,0,1,64.45,186.37Z" transform="translate(-21.17 -16.3)"/><path class="cls-4" d="M73,190.71a.22.22,0,0,1-.29.1.23.23,0,0,1-.1-.3.22.22,0,0,1,.3-.09A.2.2,0,0,1,73,190.71Z" transform="translate(-21.17 -16.3)"/><path class="cls-4" d="M81.54,195a.21.21,0,0,1-.29.1.22.22,0,0,1-.1-.29.23.23,0,0,1,.3-.1A.22.22,0,0,1,81.54,195Z" transform="translate(-21.17 -16.3)"/><path class="cls-4" d="M90.09,199.38a.22.22,0,0,1-.29.1.23.23,0,0,1-.1-.3.22.22,0,0,1,.39.2Z" transform="translate(-21.17 -16.3)"/><path class="cls-4" d="M98.64,203.72a.22.22,0,0,1-.29.09.21.21,0,0,1-.1-.29.22.22,0,0,1,.29-.1A.23.23,0,0,1,98.64,203.72Z" transform="translate(-21.17 -16.3)"/><path class="cls-4" d="M25.92,177.58a.23.23,0,0,1-.3.1.23.23,0,0,1-.09-.3.21.21,0,0,1,.29-.09A.22.22,0,0,1,25.92,177.58Z" transform="translate(-21.17 -16.3)"/><path class="cls-4" d="M34.47,181.92a.22.22,0,0,1-.3.09.2.2,0,0,1-.09-.29.22.22,0,0,1,.29-.1A.23.23,0,0,1,34.47,181.92Z" transform="translate(-21.17 -16.3)"/><path class="cls-4" d="M43,186.25a.22.22,0,0,1-.29.1.23.23,0,0,1-.1-.3.23.23,0,0,1,.3-.09A.2.2,0,0,1,43,186.25Z" transform="translate(-21.17 -16.3)"/><path class="cls-4" d="M51.56,190.59a.2.2,0,0,1-.29.09.22.22,0,0,1-.1-.29.23.23,0,0,1,.3-.1A.23.23,0,0,1,51.56,190.59Z" transform="translate(-21.17 -16.3)"/><path class="cls-4" d="M60.11,194.92a.22.22,0,0,1-.29.1.22.22,0,0,1-.1-.29.21.21,0,0,1,.29-.1A.21.21,0,0,1,60.11,194.92Z" transform="translate(-21.17 -16.3)"/><path class="cls-4" d="M68.66,199.26a.22.22,0,0,1-.39-.2.22.22,0,0,1,.29-.1A.23.23,0,0,1,68.66,199.26Z" transform="translate(-21.17 -16.3)"/><path class="cls-4" d="M77.21,203.59a.23.23,0,0,1-.3.1.22.22,0,0,1-.09-.29.21.21,0,0,1,.29-.1A.22.22,0,0,1,77.21,203.59Z" transform="translate(-21.17 -16.3)"/><path class="cls-4" d="M85.76,207.93a.22.22,0,0,1-.3.09.2.2,0,0,1-.09-.29.22.22,0,0,1,.29-.1A.23.23,0,0,1,85.76,207.93Z" transform="translate(-21.17 -16.3)"/><path class="cls-4" d="M94.3,212.26a.22.22,0,0,1-.29.1.22.22,0,0,1-.1-.29.23.23,0,0,1,.3-.1A.21.21,0,0,1,94.3,212.26Z" transform="translate(-21.17 -16.3)"/><path class="cls-4" d="M21.58,186.13a.22.22,0,0,1-.29.1.23.23,0,0,1-.1-.3.23.23,0,0,1,.3-.09A.21.21,0,0,1,21.58,186.13Z" transform="translate(-21.17 -16.3)"/><path class="cls-4" d="M30.13,190.47a.22.22,0,0,1-.39-.2.22.22,0,0,1,.29-.1A.23.23,0,0,1,30.13,190.47Z" transform="translate(-21.17 -16.3)"/><path class="cls-4" d="M38.68,194.8a.23.23,0,0,1-.3.1.23.23,0,0,1-.09-.3.21.21,0,0,1,.29-.09A.22.22,0,0,1,38.68,194.8Z" transform="translate(-21.17 -16.3)"/><path class="cls-4" d="M47.23,199.14a.23.23,0,0,1-.3.09.21.21,0,0,1-.09-.29.22.22,0,0,1,.29-.1A.23.23,0,0,1,47.23,199.14Z" transform="translate(-21.17 -16.3)"/><path class="cls-4" d="M55.78,203.47a.23.23,0,0,1-.3.1.22.22,0,0,1-.09-.3.21.21,0,0,1,.29-.09A.22.22,0,0,1,55.78,203.47Z" transform="translate(-21.17 -16.3)"/><path class="cls-4" d="M64.32,207.81a.21.21,0,0,1-.29.09.22.22,0,0,1-.1-.29.23.23,0,0,1,.3-.1A.22.22,0,0,1,64.32,207.81Z" transform="translate(-21.17 -16.3)"/><path class="cls-4" d="M72.87,212.14a.22.22,0,0,1-.29.1.23.23,0,0,1-.1-.3.23.23,0,0,1,.3-.09A.21.21,0,0,1,72.87,212.14Z" transform="translate(-21.17 -16.3)"/><path class="cls-4" d="M81.42,216.48a.22.22,0,0,1-.39-.2.22.22,0,1,1,.39.2Z" transform="translate(-21.17 -16.3)"/><path class="cls-4" d="M90,220.81a.22.22,0,1,1-.39-.2.22.22,0,0,1,.39.2Z" transform="translate(-21.17 -16.3)"/><path class="cls-4" d="M252.59,152.89a.23.23,0,0,1-.3.1.23.23,0,0,1-.09-.3.2.2,0,0,1,.29-.09A.22.22,0,0,1,252.59,152.89Z" transform="translate(-21.17 -16.3)"/><path class="cls-4" d="M261.14,157.23a.23.23,0,0,1-.3.09.21.21,0,0,1-.09-.29.22.22,0,0,1,.29-.1A.23.23,0,0,1,261.14,157.23Z" transform="translate(-21.17 -16.3)"/><path class="cls-4" d="M269.69,161.56a.23.23,0,0,1-.3.1.22.22,0,0,1-.09-.3.2.2,0,0,1,.29-.09A.22.22,0,0,1,269.69,161.56Z" transform="translate(-21.17 -16.3)"/><path class="cls-4" d="M278.23,165.9a.21.21,0,0,1-.29.09.22.22,0,0,1-.1-.29.23.23,0,0,1,.3-.1A.22.22,0,0,1,278.23,165.9Z" transform="translate(-21.17 -16.3)"/><path class="cls-4" d="M286.78,170.23a.22.22,0,0,1-.29.1.23.23,0,0,1-.1-.3.23.23,0,0,1,.3-.09A.21.21,0,0,1,286.78,170.23Z" transform="translate(-21.17 -16.3)"/><path class="cls-4" d="M295.33,174.57a.22.22,0,0,1-.39-.2.22.22,0,1,1,.39.2Z" transform="translate(-21.17 -16.3)"/><path class="cls-4" d="M303.88,178.9a.22.22,0,1,1-.39-.2.22.22,0,0,1,.39.2Z" transform="translate(-21.17 -16.3)"/><path class="cls-4" d="M312.43,183.24a.23.23,0,0,1-.3.09A.21.21,0,0,1,312,183a.22.22,0,0,1,.29-.1A.23.23,0,0,1,312.43,183.24Z" transform="translate(-21.17 -16.3)"/><path class="cls-4" d="M321,187.57a.23.23,0,0,1-.3.1.22.22,0,0,1-.09-.3.21.21,0,0,1,.29-.09A.22.22,0,0,1,321,187.57Z" transform="translate(-21.17 -16.3)"/><path class="cls-4" d="M248.25,161.44a.2.2,0,0,1-.29.09.22.22,0,0,1-.1-.29.23.23,0,0,1,.3-.1A.22.22,0,0,1,248.25,161.44Z" transform="translate(-21.17 -16.3)"/><path class="cls-4" d="M256.8,165.77a.22.22,0,0,1-.29.1.22.22,0,0,1-.1-.29.23.23,0,0,1,.3-.1A.21.21,0,0,1,256.8,165.77Z" transform="translate(-21.17 -16.3)"/><path class="cls-4" d="M265.35,170.11a.21.21,0,0,1-.29.09.22.22,0,0,1-.1-.29.22.22,0,0,1,.29-.1A.23.23,0,0,1,265.35,170.11Z" transform="translate(-21.17 -16.3)"/><path class="cls-4" d="M273.9,174.44a.23.23,0,0,1-.3.1.21.21,0,0,1-.09-.29.22.22,0,1,1,.39.19Z" transform="translate(-21.17 -16.3)"/><path class="cls-4" d="M282.45,178.78a.23.23,0,0,1-.3.1.23.23,0,0,1-.09-.3.2.2,0,0,1,.29-.09A.22.22,0,0,1,282.45,178.78Z" transform="translate(-21.17 -16.3)"/><path class="cls-4" d="M291,183.11a.22.22,0,0,1-.3.1.21.21,0,0,1-.09-.29.22.22,0,0,1,.29-.1A.22.22,0,0,1,291,183.11Z" transform="translate(-21.17 -16.3)"/><path class="cls-4" d="M299.54,187.45a.22.22,0,0,1-.29.1.23.23,0,0,1-.1-.3.22.22,0,0,1,.3-.09A.2.2,0,0,1,299.54,187.45Z" transform="translate(-21.17 -16.3)"/><path class="cls-4" d="M308.09,191.78a.21.21,0,0,1-.29.1.22.22,0,0,1-.1-.29.23.23,0,0,1,.3-.1A.22.22,0,0,1,308.09,191.78Z" transform="translate(-21.17 -16.3)"/><path class="cls-4" d="M316.64,196.12a.22.22,0,0,1-.29.1.23.23,0,0,1-.1-.3.22.22,0,0,1,.3-.09A.21.21,0,0,1,316.64,196.12Z" transform="translate(-21.17 -16.3)"/><path class="cls-4" d="M243.92,170a.23.23,0,0,1-.3.09.21.21,0,0,1-.09-.29.22.22,0,0,1,.29-.1A.23.23,0,0,1,243.92,170Z" transform="translate(-21.17 -16.3)"/><path class="cls-4" d="M252.47,174.32a.23.23,0,0,1-.3.1.23.23,0,0,1-.09-.3.21.21,0,0,1,.29-.09A.22.22,0,0,1,252.47,174.32Z" transform="translate(-21.17 -16.3)"/><path class="cls-4" d="M261,178.66a.23.23,0,0,1-.3.09.2.2,0,0,1-.09-.29.22.22,0,0,1,.29-.1A.23.23,0,0,1,261,178.66Z" transform="translate(-21.17 -16.3)"/><path class="cls-4" d="M269.56,183a.22.22,0,0,1-.29.1.23.23,0,0,1-.1-.3.23.23,0,0,1,.3-.09A.2.2,0,0,1,269.56,183Z" transform="translate(-21.17 -16.3)"/><path class="cls-4" d="M278.11,187.33a.2.2,0,0,1-.29.09.22.22,0,0,1-.1-.29.23.23,0,0,1,.3-.1A.23.23,0,0,1,278.11,187.33Z" transform="translate(-21.17 -16.3)"/><path class="cls-4" d="M286.66,191.66a.22.22,0,0,1-.29.1.22.22,0,0,1-.1-.29.21.21,0,0,1,.29-.1A.21.21,0,0,1,286.66,191.66Z" transform="translate(-21.17 -16.3)"/><path class="cls-4" d="M295.21,196a.22.22,0,0,1-.39-.2.22.22,0,0,1,.29-.1A.23.23,0,0,1,295.21,196Z" transform="translate(-21.17 -16.3)"/><path class="cls-4" d="M303.76,200.33a.23.23,0,0,1-.3.1.22.22,0,0,1-.09-.29.21.21,0,0,1,.29-.1A.22.22,0,0,1,303.76,200.33Z" transform="translate(-21.17 -16.3)"/><path class="cls-4" d="M312.31,204.67a.22.22,0,0,1-.3.09.2.2,0,0,1-.09-.29.22.22,0,0,1,.29-.1A.23.23,0,0,1,312.31,204.67Z" transform="translate(-21.17 -16.3)"/><path class="cls-4" d="M239.58,178.54a.21.21,0,0,1-.29.09.22.22,0,0,1-.1-.29.23.23,0,0,1,.3-.1A.23.23,0,0,1,239.58,178.54Z" transform="translate(-21.17 -16.3)"/><path class="cls-4" d="M248.13,182.87a.22.22,0,0,1-.29.1.23.23,0,0,1-.1-.3.23.23,0,0,1,.3-.09A.21.21,0,0,1,248.13,182.87Z" transform="translate(-21.17 -16.3)"/><path class="cls-4" d="M256.68,187.21a.22.22,0,0,1-.39-.2.22.22,0,0,1,.29-.1A.23.23,0,0,1,256.68,187.21Z" transform="translate(-21.17 -16.3)"/><path class="cls-4" d="M265.23,191.54a.23.23,0,0,1-.3.1.23.23,0,0,1-.09-.3.21.21,0,0,1,.29-.09A.22.22,0,0,1,265.23,191.54Z" transform="translate(-21.17 -16.3)"/><circle class="cls-4" cx="252.41" cy="179.47" r="0.22"/><path class="cls-4" d="M282.33,200.21a.23.23,0,0,1-.3.1.22.22,0,0,1-.09-.3.21.21,0,0,1,.29-.09A.22.22,0,0,1,282.33,200.21Z" transform="translate(-21.17 -16.3)"/><path class="cls-4" d="M290.87,204.55a.21.21,0,0,1-.29.09.22.22,0,0,1-.1-.29.23.23,0,0,1,.3-.1A.22.22,0,0,1,290.87,204.55Z" transform="translate(-21.17 -16.3)"/><path class="cls-4" d="M299.42,208.88a.22.22,0,0,1-.29.1.23.23,0,0,1-.1-.3.23.23,0,0,1,.3-.09A.21.21,0,0,1,299.42,208.88Z" transform="translate(-21.17 -16.3)"/><path class="cls-4" d="M308,213.22a.22.22,0,0,1-.39-.2.22.22,0,1,1,.39.2Z" transform="translate(-21.17 -16.3)"/><path class="cls-4" d="M235.25,187.08a.23.23,0,0,1-.3.1.22.22,0,0,1,.2-.39A.22.22,0,0,1,235.25,187.08Z" transform="translate(-21.17 -16.3)"/><path class="cls-4" d="M243.8,191.42a.23.23,0,0,1-.3.1.22.22,0,0,1-.09-.3.2.2,0,0,1,.29-.09A.22.22,0,0,1,243.8,191.42Z" transform="translate(-21.17 -16.3)"/><path class="cls-4" d="M252.34,195.75a.22.22,0,0,1-.29.1.22.22,0,0,1-.1-.29.23.23,0,0,1,.3-.1A.21.21,0,0,1,252.34,195.75Z" transform="translate(-21.17 -16.3)"/><path class="cls-4" d="M260.89,200.09a.22.22,0,0,1-.29.1.23.23,0,0,1-.1-.3.22.22,0,0,1,.3-.09A.21.21,0,0,1,260.89,200.09Z" transform="translate(-21.17 -16.3)"/><path class="cls-4" d="M269.44,204.42a.21.21,0,0,1-.29.1.22.22,0,0,1-.1-.29.23.23,0,0,1,.3-.1A.22.22,0,0,1,269.44,204.42Z" transform="translate(-21.17 -16.3)"/><path class="cls-4" d="M278,208.76a.22.22,0,0,1-.29.1.23.23,0,0,1-.1-.3.21.21,0,0,1,.29-.09A.22.22,0,0,1,278,208.76Z" transform="translate(-21.17 -16.3)"/><path class="cls-4" d="M286.54,213.09a.22.22,0,0,1-.3.1.22.22,0,0,1,.2-.39A.22.22,0,0,1,286.54,213.09Z" transform="translate(-21.17 -16.3)"/><path class="cls-4" d="M295.09,217.43a.23.23,0,0,1-.3.1.23.23,0,0,1-.09-.3.2.2,0,0,1,.29-.09A.22.22,0,0,1,295.09,217.43Z" transform="translate(-21.17 -16.3)"/><path class="cls-4" d="M303.64,221.77a.23.23,0,0,1-.3.09.2.2,0,0,1-.09-.29.22.22,0,0,1,.29-.1A.23.23,0,0,1,303.64,221.77Z" transform="translate(-21.17 -16.3)"/><path class="cls-4" d="M230.91,195.63a.22.22,0,0,1-.29.1.23.23,0,0,1-.1-.3.23.23,0,0,1,.3-.09A.21.21,0,0,1,230.91,195.63Z" transform="translate(-21.17 -16.3)"/><path class="cls-4" d="M239.46,200a.2.2,0,0,1-.29.09.22.22,0,0,1-.1-.29.23.23,0,0,1,.3-.1A.23.23,0,0,1,239.46,200Z" transform="translate(-21.17 -16.3)"/><path class="cls-4" d="M248,204.3a.22.22,0,0,1-.29.1.23.23,0,0,1-.1-.3.22.22,0,0,1,.39.2Z" transform="translate(-21.17 -16.3)"/><path class="cls-4" d="M256.56,208.64a.22.22,0,0,1-.3.09.21.21,0,0,1-.09-.29.22.22,0,0,1,.29-.1A.23.23,0,0,1,256.56,208.64Z" transform="translate(-21.17 -16.3)"/><path class="cls-4" d="M265.11,213a.23.23,0,0,1-.3.1.22.22,0,0,1-.09-.29.21.21,0,0,1,.29-.1A.22.22,0,0,1,265.11,213Z" transform="translate(-21.17 -16.3)"/><path class="cls-4" d="M273.66,217.31a.22.22,0,0,1-.3.09.2.2,0,0,1-.09-.29.22.22,0,0,1,.29-.1A.23.23,0,0,1,273.66,217.31Z" transform="translate(-21.17 -16.3)"/><path class="cls-4" d="M282.2,221.64a.22.22,0,0,1-.29.1.22.22,0,1,1,.2-.39A.21.21,0,0,1,282.2,221.64Z" transform="translate(-21.17 -16.3)"/><path class="cls-4" d="M290.75,226a.2.2,0,0,1-.29.09.22.22,0,0,1-.1-.29.23.23,0,0,1,.3-.1A.23.23,0,0,1,290.75,226Z" transform="translate(-21.17 -16.3)"/><path class="cls-4" d="M299.3,230.31a.22.22,0,0,1-.39-.19.22.22,0,0,1,.29-.1A.21.21,0,0,1,299.3,230.31Z" transform="translate(-21.17 -16.3)"/><path class="cls-4" d="M226.58,204.18a.23.23,0,0,1-.3.1.23.23,0,0,1-.09-.3.21.21,0,0,1,.29-.09A.22.22,0,0,1,226.58,204.18Z" transform="translate(-21.17 -16.3)"/><path class="cls-4" d="M235.13,208.52a.23.23,0,0,1-.3.09.2.2,0,0,1-.09-.29.22.22,0,0,1,.29-.1A.23.23,0,0,1,235.13,208.52Z" transform="translate(-21.17 -16.3)"/><path class="cls-4" d="M243.67,212.85a.22.22,0,0,1-.29.1.23.23,0,0,1-.1-.3.23.23,0,0,1,.3-.09A.2.2,0,0,1,243.67,212.85Z" transform="translate(-21.17 -16.3)"/><path class="cls-4" d="M252.22,217.19a.21.21,0,0,1-.29.09.22.22,0,0,1-.1-.29.23.23,0,0,1,.3-.1A.23.23,0,0,1,252.22,217.19Z" transform="translate(-21.17 -16.3)"/><path class="cls-4" d="M260.77,221.52a.22.22,0,0,1-.29.1.23.23,0,0,1-.1-.3.23.23,0,0,1,.3-.09A.21.21,0,0,1,260.77,221.52Z" transform="translate(-21.17 -16.3)"/><path class="cls-4" d="M269.32,225.86a.22.22,0,0,1-.39-.2.22.22,0,0,1,.29-.1A.23.23,0,0,1,269.32,225.86Z" transform="translate(-21.17 -16.3)"/><path class="cls-4" d="M277.87,230.19a.23.23,0,0,1-.3.1.23.23,0,0,1-.09-.3.21.21,0,0,1,.29-.09A.22.22,0,0,1,277.87,230.19Z" transform="translate(-21.17 -16.3)"/><path class="cls-4" d="M286.42,234.53a.23.23,0,0,1-.3.09.21.21,0,0,1-.09-.29.22.22,0,0,1,.29-.1A.23.23,0,0,1,286.42,234.53Z" transform="translate(-21.17 -16.3)"/><path class="cls-4" d="M295,238.86a.23.23,0,0,1-.3.1.22.22,0,0,1-.09-.3.21.21,0,0,1,.29-.09A.22.22,0,0,1,295,238.86Z" transform="translate(-21.17 -16.3)"/><path class="cls-5" d="M237.12,16.87a.23.23,0,0,1-.3.1.23.23,0,0,1-.09-.3.21.21,0,0,1,.29-.09A.22.22,0,0,1,237.12,16.87Z" transform="translate(-21.17 -16.3)"/><path class="cls-5" d="M245.67,21.21a.23.23,0,0,1-.3.09.2.2,0,0,1-.09-.29.22.22,0,0,1,.29-.1A.23.23,0,0,1,245.67,21.21Z" transform="translate(-21.17 -16.3)"/><path class="cls-5" d="M254.21,25.54a.22.22,0,0,1-.29.1.23.23,0,0,1-.1-.3.23.23,0,0,1,.3-.09A.2.2,0,0,1,254.21,25.54Z" transform="translate(-21.17 -16.3)"/><path class="cls-5" d="M262.76,29.88a.21.21,0,0,1-.29.09.22.22,0,0,1-.1-.29.23.23,0,0,1,.3-.1A.23.23,0,0,1,262.76,29.88Z" transform="translate(-21.17 -16.3)"/><path class="cls-5" d="M271.31,34.21a.22.22,0,0,1-.29.1.23.23,0,0,1-.1-.3.22.22,0,0,1,.29-.09A.21.21,0,0,1,271.31,34.21Z" transform="translate(-21.17 -16.3)"/><path class="cls-5" d="M279.86,38.55a.22.22,0,0,1-.29.09.21.21,0,0,1-.1-.29.22.22,0,0,1,.29-.1A.23.23,0,0,1,279.86,38.55Z" transform="translate(-21.17 -16.3)"/><path class="cls-5" d="M288.41,42.88a.23.23,0,0,1-.3.1.23.23,0,0,1-.09-.3.21.21,0,0,1,.29-.09A.22.22,0,0,1,288.41,42.88Z" transform="translate(-21.17 -16.3)"/><path class="cls-5" d="M297,47.22a.23.23,0,0,1-.3.09.2.2,0,0,1-.09-.29.22.22,0,0,1,.29-.1A.23.23,0,0,1,297,47.22Z" transform="translate(-21.17 -16.3)"/><path class="cls-5" d="M305.5,51.55a.22.22,0,0,1-.29.1.23.23,0,0,1-.1-.3.23.23,0,0,1,.3-.09A.2.2,0,0,1,305.5,51.55Z" transform="translate(-21.17 -16.3)"/><path class="cls-5" d="M232.78,25.42a.22.22,0,0,1-.29.1.23.23,0,0,1-.1-.3.22.22,0,0,1,.3-.09A.21.21,0,0,1,232.78,25.42Z" transform="translate(-21.17 -16.3)"/><path class="cls-5" d="M241.33,29.75a.22.22,0,1,1-.39-.19.22.22,0,0,1,.29-.1A.21.21,0,0,1,241.33,29.75Z" transform="translate(-21.17 -16.3)"/><path class="cls-5" d="M249.88,34.09a.22.22,0,1,1-.39-.2.21.21,0,0,1,.29-.09A.22.22,0,0,1,249.88,34.09Z" transform="translate(-21.17 -16.3)"/><path class="cls-5" d="M258.43,38.42a.22.22,0,0,1-.3.1.22.22,0,0,1,.2-.39A.22.22,0,0,1,258.43,38.42Z" transform="translate(-21.17 -16.3)"/><path class="cls-5" d="M267,42.76a.23.23,0,0,1-.3.1.22.22,0,0,1-.09-.3.2.2,0,0,1,.29-.09A.22.22,0,0,1,267,42.76Z" transform="translate(-21.17 -16.3)"/><path class="cls-5" d="M275.52,47.09a.21.21,0,0,1-.29.1.22.22,0,0,1-.1-.29.23.23,0,0,1,.3-.1A.21.21,0,0,1,275.52,47.09Z" transform="translate(-21.17 -16.3)"/><path class="cls-5" d="M284.07,51.43a.22.22,0,0,1-.29.1.23.23,0,0,1-.1-.3.22.22,0,0,1,.3-.09A.21.21,0,0,1,284.07,51.43Z" transform="translate(-21.17 -16.3)"/><path class="cls-5" d="M292.62,55.77a.21.21,0,0,1-.29.09.22.22,0,0,1-.1-.29.23.23,0,0,1,.3-.1A.23.23,0,0,1,292.62,55.77Z" transform="translate(-21.17 -16.3)"/><path class="cls-5" d="M301.17,60.1a.22.22,0,0,1-.29.1.23.23,0,0,1-.1-.3.21.21,0,0,1,.29-.09A.22.22,0,0,1,301.17,60.1Z" transform="translate(-21.17 -16.3)"/><path class="cls-5" d="M228.45,34a.22.22,0,0,1-.3.09.21.21,0,0,1-.09-.29.22.22,0,0,1,.29-.1A.23.23,0,0,1,228.45,34Z" transform="translate(-21.17 -16.3)"/><path class="cls-5" d="M237,38.3a.23.23,0,0,1-.3.1.22.22,0,0,1-.09-.3.21.21,0,0,1,.29-.09A.22.22,0,0,1,237,38.3Z" transform="translate(-21.17 -16.3)"/><path class="cls-5" d="M245.54,42.64a.2.2,0,0,1-.29.09.22.22,0,0,1-.1-.29.23.23,0,0,1,.3-.1A.22.22,0,0,1,245.54,42.64Z" transform="translate(-21.17 -16.3)"/><path class="cls-5" d="M254.09,47a.22.22,0,0,1-.29.1.22.22,0,1,1,.2-.39A.21.21,0,0,1,254.09,47Z" transform="translate(-21.17 -16.3)"/><path class="cls-5" d="M262.64,51.31a.21.21,0,0,1-.29.09.22.22,0,0,1-.1-.29.22.22,0,1,1,.39.2Z" transform="translate(-21.17 -16.3)"/><path class="cls-5" d="M271.19,55.64a.22.22,0,0,1-.29.1.21.21,0,0,1-.1-.29.21.21,0,0,1,.29-.1A.22.22,0,0,1,271.19,55.64Z" transform="translate(-21.17 -16.3)"/><path class="cls-5" d="M279.74,60a.22.22,0,0,1-.3.09.21.21,0,0,1-.09-.29.22.22,0,0,1,.29-.1A.23.23,0,0,1,279.74,60Z" transform="translate(-21.17 -16.3)"/><path class="cls-5" d="M288.29,64.31a.23.23,0,0,1-.3.1.21.21,0,0,1-.09-.29.22.22,0,0,1,.29-.1A.22.22,0,0,1,288.29,64.31Z" transform="translate(-21.17 -16.3)"/><path class="cls-5" d="M296.83,68.65a.2.2,0,0,1-.29.09.22.22,0,0,1-.1-.29.23.23,0,0,1,.3-.1A.22.22,0,0,1,296.83,68.65Z" transform="translate(-21.17 -16.3)"/><path class="cls-5" d="M224.11,42.52a.21.21,0,0,1-.29.09.22.22,0,0,1-.1-.29.23.23,0,0,1,.3-.1A.23.23,0,0,1,224.11,42.52Z" transform="translate(-21.17 -16.3)"/><path class="cls-5" d="M232.66,46.85a.22.22,0,0,1-.29.1.23.23,0,0,1-.1-.3.22.22,0,0,1,.39.2Z" transform="translate(-21.17 -16.3)"/><path class="cls-5" d="M241.21,51.19a.23.23,0,0,1-.3.09.21.21,0,0,1-.09-.29.22.22,0,0,1,.29-.1A.23.23,0,0,1,241.21,51.19Z" transform="translate(-21.17 -16.3)"/><path class="cls-5" d="M249.76,55.52a.23.23,0,0,1-.3.1.23.23,0,0,1-.09-.3.21.21,0,0,1,.29-.09A.22.22,0,0,1,249.76,55.52Z" transform="translate(-21.17 -16.3)"/><circle class="cls-5" cx="236.94" cy="43.45" r="0.22"/><path class="cls-5" d="M266.85,64.19a.22.22,0,0,1-.29.1.23.23,0,0,1-.1-.3.23.23,0,0,1,.3-.09A.2.2,0,0,1,266.85,64.19Z" transform="translate(-21.17 -16.3)"/><path class="cls-5" d="M275.4,68.53a.21.21,0,0,1-.29.09.22.22,0,0,1-.1-.29.23.23,0,0,1,.3-.1A.23.23,0,0,1,275.4,68.53Z" transform="translate(-21.17 -16.3)"/><path class="cls-5" d="M284,72.86a.22.22,0,0,1-.29.1.23.23,0,0,1-.1-.3.22.22,0,0,1,.29-.09A.21.21,0,0,1,284,72.86Z" transform="translate(-21.17 -16.3)"/><path class="cls-5" d="M292.5,77.2a.22.22,0,0,1-.29.09.21.21,0,0,1-.1-.29.22.22,0,0,1,.29-.1A.23.23,0,0,1,292.5,77.2Z" transform="translate(-21.17 -16.3)"/><path class="cls-5" d="M219.78,51.06a.22.22,0,0,1-.3.1.21.21,0,0,1-.09-.29.22.22,0,0,1,.29-.1A.22.22,0,0,1,219.78,51.06Z" transform="translate(-21.17 -16.3)"/><path class="cls-5" d="M228.32,55.4a.22.22,0,0,1-.29.1.23.23,0,0,1-.1-.3.22.22,0,0,1,.3-.09A.2.2,0,0,1,228.32,55.4Z" transform="translate(-21.17 -16.3)"/><path class="cls-5" d="M236.87,59.73a.21.21,0,0,1-.29.1.22.22,0,0,1-.1-.29.23.23,0,0,1,.3-.1A.21.21,0,0,1,236.87,59.73Z" transform="translate(-21.17 -16.3)"/><path class="cls-5" d="M245.42,64.07a.22.22,0,0,1-.29.1.23.23,0,0,1-.1-.3.22.22,0,0,1,.3-.09A.21.21,0,0,1,245.42,64.07Z" transform="translate(-21.17 -16.3)"/><path class="cls-5" d="M254,68.41a.21.21,0,0,1-.29.09.22.22,0,0,1,.19-.39A.23.23,0,0,1,254,68.41Z" transform="translate(-21.17 -16.3)"/><path class="cls-5" d="M262.52,72.74a.23.23,0,0,1-.3.1.23.23,0,0,1-.09-.3.21.21,0,0,1,.29-.09A.22.22,0,0,1,262.52,72.74Z" transform="translate(-21.17 -16.3)"/><path class="cls-5" d="M271.07,77.08a.23.23,0,0,1-.3.09.21.21,0,0,1-.09-.29.22.22,0,0,1,.29-.1A.23.23,0,0,1,271.07,77.08Z" transform="translate(-21.17 -16.3)"/><path class="cls-5" d="M279.62,81.41a.23.23,0,0,1-.3.1.22.22,0,0,1-.09-.3.21.21,0,0,1,.29-.09A.22.22,0,0,1,279.62,81.41Z" transform="translate(-21.17 -16.3)"/><path class="cls-5" d="M288.16,85.75a.21.21,0,0,1-.29.09.22.22,0,0,1-.1-.29.23.23,0,0,1,.3-.1A.22.22,0,0,1,288.16,85.75Z" transform="translate(-21.17 -16.3)"/><path class="cls-5" d="M215.44,59.61a.22.22,0,0,1-.29.1.22.22,0,1,1,.2-.39A.21.21,0,0,1,215.44,59.61Z" transform="translate(-21.17 -16.3)"/><path class="cls-5" d="M224,64a.21.21,0,0,1-.29.09.22.22,0,0,1-.1-.29.22.22,0,0,1,.29-.1A.23.23,0,0,1,224,64Z" transform="translate(-21.17 -16.3)"/><path class="cls-5" d="M232.54,68.28a.23.23,0,0,1-.3.1.22.22,0,0,1-.09-.29.21.21,0,0,1,.29-.1A.22.22,0,0,1,232.54,68.28Z" transform="translate(-21.17 -16.3)"/><path class="cls-5" d="M241.09,72.62a.22.22,0,0,1-.3.09.21.21,0,0,1-.09-.29.22.22,0,0,1,.29-.1A.23.23,0,0,1,241.09,72.62Z" transform="translate(-21.17 -16.3)"/><path class="cls-5" d="M249.64,77a.23.23,0,0,1-.3.1.21.21,0,0,1-.09-.29.22.22,0,0,1,.29-.1A.22.22,0,0,1,249.64,77Z" transform="translate(-21.17 -16.3)"/><path class="cls-5" d="M258.18,81.29a.2.2,0,0,1-.29.09.22.22,0,0,1-.1-.29.23.23,0,0,1,.3-.1A.22.22,0,0,1,258.18,81.29Z" transform="translate(-21.17 -16.3)"/><path class="cls-5" d="M266.73,85.62a.22.22,0,0,1-.29.1.22.22,0,0,1-.1-.29.23.23,0,0,1,.3-.1A.21.21,0,0,1,266.73,85.62Z" transform="translate(-21.17 -16.3)"/><path class="cls-5" d="M275.28,90a.22.22,0,0,1-.29.1.23.23,0,0,1-.1-.3.22.22,0,0,1,.39.2Z" transform="translate(-21.17 -16.3)"/><path class="cls-5" d="M283.83,94.29a.22.22,0,0,1-.29.1.21.21,0,0,1-.1-.29.22.22,0,1,1,.39.19Z" transform="translate(-21.17 -16.3)"/><path class="cls-5" d="M211.11,68.16a.23.23,0,0,1-.3.1.22.22,0,0,1-.09-.3.21.21,0,0,1,.29-.09A.22.22,0,0,1,211.11,68.16Z" transform="translate(-21.17 -16.3)"/><path class="cls-5" d="M219.65,72.5a.21.21,0,0,1-.29.09.22.22,0,0,1-.1-.29.23.23,0,0,1,.3-.1A.22.22,0,0,1,219.65,72.5Z" transform="translate(-21.17 -16.3)"/><path class="cls-5" d="M228.2,76.83a.22.22,0,0,1-.29.1.23.23,0,0,1-.1-.3.23.23,0,0,1,.3-.09A.21.21,0,0,1,228.2,76.83Z" transform="translate(-21.17 -16.3)"/><path class="cls-5" d="M236.75,81.17a.21.21,0,0,1-.29.09.22.22,0,0,1-.1-.29.23.23,0,0,1,.3-.1A.23.23,0,0,1,236.75,81.17Z" transform="translate(-21.17 -16.3)"/><path class="cls-5" d="M245.3,85.5a.22.22,0,0,1-.29.1.23.23,0,0,1-.1-.3.22.22,0,0,1,.39.2Z" transform="translate(-21.17 -16.3)"/><path class="cls-5" d="M253.85,89.84a.23.23,0,0,1-.3.09.21.21,0,0,1-.09-.29.22.22,0,0,1,.29-.1A.23.23,0,0,1,253.85,89.84Z" transform="translate(-21.17 -16.3)"/><path class="cls-5" d="M262.4,94.17a.23.23,0,0,1-.3.1A.23.23,0,0,1,262,94a.21.21,0,0,1,.29-.09A.22.22,0,0,1,262.4,94.17Z" transform="translate(-21.17 -16.3)"/><path class="cls-5" d="M271,98.51a.22.22,0,0,1-.3.09.2.2,0,0,1-.09-.29.22.22,0,0,1,.29-.1A.23.23,0,0,1,271,98.51Z" transform="translate(-21.17 -16.3)"/><path class="cls-5" d="M279.49,102.84a.22.22,0,0,1-.29.1.23.23,0,0,1-.1-.3.23.23,0,0,1,.3-.09A.21.21,0,0,1,279.49,102.84Z" transform="translate(-21.17 -16.3)"/></g><g id="Layer_1" data-name="Layer 1"><path class="cls-6" d="M231.26,277.14a4.19,4.19,0,0,1-.27-8.37,42.68,42.68,0,0,0,11.73-3.1,50.62,50.62,0,0,0,21.94-17.26,4.19,4.19,0,0,1,6.77,5c-16.14,22.05-38.94,23.72-39.9,23.78Z" transform="translate(-21.17 -16.3)"/><path class="cls-6" d="M68.6,201.58a4.19,4.19,0,0,1,8.38-.27A42.31,42.31,0,0,0,80.07,213,50.51,50.51,0,0,0,97.33,235a4.19,4.19,0,1,1-5,6.77c-22-16.13-23.71-38.94-23.77-39.9A2.35,2.35,0,0,1,68.6,201.58Z" transform="translate(-21.17 -16.3)"/><path class="cls-6" d="M193.44,36.26a4.19,4.19,0,0,1-5.41,6.4,42.48,42.48,0,0,0-10.78-5.54,50.52,50.52,0,0,0-27.86-1.86,4.19,4.19,0,0,1-1.72-8.21c26.75-5.59,44.81,8.44,45.56,9Z" transform="translate(-21.17 -16.3)"/><polygon class="cls-7" points="68.84 181.77 92.99 169.11 102.08 193.04 78.15 201.48 68.84 181.77"/><path class="cls-8" d="M97.78,197s7.6-1.56,10.83,0,6,11.17,6,11.17l15.93,1.14-14.41-27.07-14.94,7.07Z" transform="translate(-21.17 -16.3)"/><path class="cls-9" d="M103.05,107.4a24.21,24.21,0,0,0-12.43,31.9l41,93.34a24.21,24.21,0,0,0,31.9,12.43L282.8,192.69V28.46Z" transform="translate(-21.17 -16.3)"/><circle class="cls-10" cx="263.86" cy="181.1" r="8.15" transform="translate(6.01 380.21) rotate(-76.77)"/><circle class="cls-10" cx="231.73" cy="73.79" r="8.15" transform="matrix(0.23, -0.97, 0.97, 0.23, 85.69, 266.18)"/><circle class="cls-10" cx="116.17" cy="134.98" r="8.15" transform="translate(-63.13 200.59) rotate(-76.67)"/><g class="cls-11"><path class="cls-12" d="M172.36,186.81l-7.77,7.95L132,223.05l-5.1-1.18,4.73,10.77a25,25,0,0,0,1.5,2.86c3.87-1,8.69-2.59,10.78-4.24,3.76-3,20.87-27,20.87-27s5.07-3.14,5.75-4.84,1.94-9.13,2.46-10.35A2.17,2.17,0,0,0,172.36,186.81Z" transform="translate(-21.17 -16.3)"/><path class="cls-12" d="M142.84,182.44c1.75-.17,3-2.62,3-2.62l2.72-1.22.35-2.71L144.42,174l-25.48-7.31-15.83-3.45-.81,2.68,4.63,10.53,26.57,5.25S141.1,182.62,142.84,182.44Z" transform="translate(-21.17 -16.3)"/></g><path class="cls-10" d="M221.09,162.4l1.77,16.48,9.39,15.18,14.31,14.55-59.2,25.88L183.86,206l-3.38-15.19-9.39-16.1,49.14-21.39a2.69,2.69,0,0,1,.37,1.07C220.62,154.84,221.09,162.4,221.09,162.4Z" transform="translate(-21.17 -16.3)"/><rect class="cls-13" x="181.42" y="171.06" width="49.17" height="33.57" rx="1.67" ry="1.67" transform="translate(-78.77 80.79) rotate(-23.36)"/><rect class="cls-14" x="184.49" y="172.75" width="39.01" height="20.88" rx="1.35" ry="1.35" transform="translate(-77.09 79.61) rotate(-23.36)"/><rect class="cls-15" x="205.79" y="193.77" width="8.95" height="7.89" rx="1.4" ry="1.4" transform="translate(-82.33 83.29) rotate(-23.36)"/><path class="cls-16" d="M218.85,153l-23.51,10.15-23.51,10.16a1.24,1.24,0,0,0-.41,2l5.72,6.09a.91.91,0,0,0,1,.21l21.2-9.16,21.2-9.16a.91.91,0,0,0,.54-.88l-.52-8.34A1.23,1.23,0,0,0,218.85,153Z" transform="translate(-21.17 -16.3)"/><path class="cls-12" d="M221.09,162.4l-.52-8.3a1.23,1.23,0,0,0-1.33-.19l-23.51,10.16-23.51,10.15a1.23,1.23,0,0,0-.77,1.1l5.69,6.07a.91.91,0,0,0,1,.21l21.2-9.16,21.2-9.16A.91.91,0,0,0,221.09,162.4Z" transform="translate(-21.17 -16.3)"/><path class="cls-17" d="M219,162.93l-.16-6.85a1.16,1.16,0,0,0-1.18-.11l-21.43,9.26-21.42,9.25a1.15,1.15,0,0,0-.73.94l4.87,4.81a.81.81,0,0,0,.9.13L199.17,172l19.31-8.34A.82.82,0,0,0,219,162.93Z" transform="translate(-21.17 -16.3)"/><path class="cls-18" d="M198.16,213.12l-1.9-9.16s1.79-5.82,1.66-6.92-2.11-8.06-2.11-8.06-1.32-.14-1.6.56a19.15,19.15,0,0,0,0,4.11,9.7,9.7,0,0,1-1.28-1.7c-.21-.48-.67-5.26-.88-7.55a1.34,1.34,0,0,0-1.33-1.22h0a1.35,1.35,0,0,0-1.33,1.17l-.34,2.69-2.26.45L185.73,190l-2.38,5.09,1.49,5.74,3.36,4.43.71,7.89Z" transform="translate(-21.17 -16.3)"/><path class="cls-18" d="M230.22,199.43l-6.31-6.91s-5.77-2-6.59-2.71-5.3-6.43-5.3-6.43.67-1.15,1.4-1a19.84,19.84,0,0,1,3.33,2.41,9.11,9.11,0,0,0-.63-2c-.27-.46-3.87-3.62-5.61-5.13a1.34,1.34,0,0,1-.2-1.8h0a1.35,1.35,0,0,1,1.73-.39l2.38,1.3,1.69-1.57,2.62.59,5.52,1.05,3.78,4.58,1.63,5.31,6,5.2Z" transform="translate(-21.17 -16.3)"/><rect class="cls-16" x="127.37" y="169.77" width="41.11" height="29.46" transform="translate(-74.5 44.02) rotate(-19.6)"/><rect class="cls-19" x="127.03" y="170.01" width="40.06" height="27.28" transform="translate(-74.26 43.68) rotate(-19.6)"/><rect class="cls-16" x="125.34" y="167.71" width="41.11" height="29.46" transform="translate(-73.92 43.22) rotate(-19.6)"/><path class="cls-20" d="M128.45,166.66l4.84,2s5.54-1.16,7.36-.47a69.64,69.64,0,0,1,7.87,4.6,6.37,6.37,0,0,1,1.47,2.74,3.56,3.56,0,0,1-2.44,2.27c-1.27.11-7.09.29-7.09.29a20.7,20.7,0,0,1,1.72,1.63,1.81,1.81,0,0,1,.1,1.51c-.19.18-4.69-1.74-6-2.15a12.72,12.72,0,0,1-3.56-2.45c-.35-.35-1.53-1.68-1.53-1.68l-5.34-2.16Z" transform="translate(-21.17 -16.3)"/><path class="cls-20" d="M159,206l3.37-4s5.45-1.5,6.76-3,.89-3.77,1.21-4.4-.15-4.71.13-5c1-1.07,2.42-2.12,3.25-3,1.47-1.62.42-2.35-.32-2.05-1.18.48-9,5.77-9,5.77a22.25,22.25,0,0,0,.79-2.24,1.84,1.84,0,0,0-.61-1.39c-.25-.06-3.37,3.7-4.32,4.65a12.39,12.39,0,0,0-2,3.81c-.15.46-.59,2.2-.59,2.2l-3.75,4.36Z" transform="translate(-21.17 -16.3)"/><rect class="cls-21" x="156.63" y="111.1" width="39.3" height="26.35" rx="3.49" ry="3.49" transform="translate(-51.4 45.74) rotate(-18.41)"/><path class="cls-22" d="M196.06,132.52,165.4,142.73a4.4,4.4,0,0,1-5.55-2.78l-6.12-18.38a4.39,4.39,0,0,1,2.78-5.54l30.66-10.21a4.38,4.38,0,0,1,5.54,2.78L198.83,127A4.39,4.39,0,0,1,196.06,132.52Zm-37.62-15.25a2.61,2.61,0,0,0-1.65,3.29l6.12,18.38a2.62,2.62,0,0,0,3.29,1.64l29.29-9.75a2.61,2.61,0,0,0,1.65-3.29L191,109.16a2.6,2.6,0,0,0-3.29-1.64Z" transform="translate(-21.17 -16.3)"/><path class="cls-9" d="M159.56,129.84a1.09,1.09,0,1,1-1.37-.69A1.09,1.09,0,0,1,159.56,129.84Z" transform="translate(-21.17 -16.3)"/><polygon class="cls-10" points="110.2 78.66 139.12 120.2 152.16 116.91 148.48 108.17 140.95 106.05 132.1 90.12 177.48 73.56 178.18 66.36 172.21 51.43 110.2 78.66"/><path class="cls-23" d="M171.71,128.56l-6-2.75a.73.73,0,0,0-.86.22l-.06.08a.71.71,0,0,0,.28,1.07l6,2.67a.71.71,0,0,0,.58-1.29Z" transform="translate(-21.17 -16.3)"/><path class="cls-18" d="M158.83,89.87a15.49,15.49,0,0,1-3.42.95c-1.65.21-3.75-.7-5.14-.48S145.38,93,145.38,93L144,96.27l-.82,5.36,6,2.44s1.54.69,4-.65a55.67,55.67,0,0,0,7-5.23l3-1.57Z" transform="translate(-21.17 -16.3)"/><path class="cls-18" d="M163,120.13l4.09,1.42s2.14,2.29,2.54,2.93,0,2.53,0,2.53a4.53,4.53,0,0,1,1.34,2.76c-.08,1.35-2.22,3.17-4.9,3.25s-5.54.39-6.17,0-3.64-6.45-3.64-6.45L152,120.68l8.31-4Z" transform="translate(-21.17 -16.3)"/><path class="cls-4" d="M76.46,205.1s-1.33-14,1.84-18.35S98.65,152.2,100.1,151,132,166.57,132,166.57s-3.41,8-3.77,8.17-22.92-8.05-22.92-8.05l-3.93,12.61,5.84-2.25L112.44,189s-6.21,3.91-16.76,9.11A90.88,90.88,0,0,1,76.46,205.1Z" transform="translate(-21.17 -16.3)"/><path class="cls-4" d="M88.2,228c-.15.37,15.14,11.61,21,9.58s28.87-7.72,32-9.95,20.35-22.67,20.35-22.67l-5.47-6.65L138,214.7l-12.52,3.88-5.92-13.48S94.12,212.77,88.2,228Z" transform="translate(-21.17 -16.3)"/><path class="cls-24" d="M186.27,210.18l13.55-1.8,5.11,18.51,34.63-15.21-12-11.9,8.23-10,26.62,21.86s7.81,23,7.6,25.56-9.44,21.88-23.46,28.42-33-1.92-35.53-2.51-17.5-19.6-17.77-20.23S186.27,210.18,186.27,210.18Z" transform="translate(-21.17 -16.3)"/><path class="cls-25" d="M200.16,80.92c-1.72-9.18-2.51-29.78-4.23-32.7-2.24-3.83-7.43-9.19-15.62-12.39,0,0-35-3-43,1.92S126.35,86,126.36,88s27,36.27,27,36.27l8.55-6.71-17.3-28.41L183,72.28l.69,4.79L156.87,89.45,162.19,99l34.36-11.9A5.44,5.44,0,0,0,200.16,80.92Z" transform="translate(-21.17 -16.3)"/><polygon class="cls-26" points="136.27 104.75 133.03 105.44 105.41 72.27 132.16 107.97 136.27 104.75"/><path class="cls-26" d="M200.2,82.66A10.19,10.19,0,0,1,196,85.94c-2.53,1-32.23,10-32.23,10l-3.52-.42L162.19,99l34.36-11.9A5.43,5.43,0,0,0,200.2,82.66Z" transform="translate(-21.17 -16.3)"/><path class="cls-26" d="M144.58,89.16l5.51-40.69s15.84-1.63,20.26,0,11,4.59,11,4.59L183,72.28Z" transform="translate(-21.17 -16.3)"/><path class="cls-26" d="M139.84,40.67S148.22,50.92,148.4,61s3.44,5.88,3.44,5.88l-1.75-18.4S145.78,42.53,139.84,40.67Z" transform="translate(-21.17 -16.3)"/><path class="cls-26" d="M181.75,57.3s-1.85-10.81,3.39-16a16.66,16.66,0,0,0-8.61,10.48C174.55,59.3,181.75,57.3,181.75,57.3Z" transform="translate(-21.17 -16.3)"/><path class="cls-18" d="M174.38,49.66c.27-.1-.22,7.38-.22,7.38l-2.45,3.82s-5.7,4.07-6.77,4.57-7.29.58-7.29.58-1.86.9-2.74.49S153.1,63,153.1,63s-3.45-1.86-3.32-9S159,43.75,159,43.75Z" transform="translate(-21.17 -16.3)"/><path class="cls-18" d="M152.18,36.41s-2.11-.87-3.32.75.84,4.62.84,4.62Z" transform="translate(-21.17 -16.3)"/><path class="cls-18" d="M180.32,50s1.57.44,1.58,1.77-3,4.55-5.14,4.31S180.32,50,180.32,50Z" transform="translate(-21.17 -16.3)"/><path class="cls-27" d="M148.77,51.76s-1.19-12.91,3-19,8.82-7.2,8.82-7.2a11.92,11.92,0,0,1,9.88-.91,20.7,20.7,0,0,1,12.08,12.45c1.77,5.4-.79,13.22-3.77,17a40.08,40.08,0,0,1-7.1,6.78s1.71-5-.28-5.32c0,0-8,6.06-13.33,5.72s-6.36-1.42-6.36-1.42,6.52-1.55,9.24-3.8c0,0-7.61,2.27-11.08,2.19L152.46,55l-1.77.86A6.43,6.43,0,0,1,148.77,51.76Z" transform="translate(-21.17 -16.3)"/><path class="cls-28" d="M106.24,214.23s.71,2.88-.57,4.9-3.73,2.44-5.36,4.71-4.82,6.73-9.31,6.83-7.86-4.62-10.48-5.61-9.32.87-11.42-3.32,2.86-11.24-.4-14.85-2.79-7.94-.94-10c3-3.37,7-3.7,11.59-1.08s7.22.67,9.32,0,5.64-1,7-.36,2.25,3,2.25,3Z" transform="translate(-21.17 -16.3)"/><path class="cls-29" d="M107.2,177.05l-5.84,2.25-3.58,9.08s5.68-.79,7,0a15.33,15.33,0,0,1,2.75,3.47c3.19-1.79,4.92-2.88,4.92-2.88Z" transform="translate(-21.17 -16.3)"/><path class="cls-29" d="M119.52,205.1s-1.56.48-4,1.42c1,2.43,2.61,6.56,2.26,9-.53,3.67-5.34,6.46-5.34,6.46l13-3.42Z" transform="translate(-21.17 -16.3)"/><path class="cls-20" d="M221.45,242.42s-2.32-6.29.05-10c2.75-4.32,10.3-7.14,15.08-5.3,7,2.7,6.52,5,6.52,5Z" transform="translate(-21.17 -16.3)"/><path class="cls-30" d="M246.51,232.69s-5.07-5.47-12.6-4.27-9.21,2.79-9.21,2.79l2-.05-3.5,2.67s-4.14,6.77-4,11.59a14.79,14.79,0,0,0,2.39,7.89s.88,4.71,3.11,6.73a17.79,17.79,0,0,0,11.64,3.75,20.69,20.69,0,0,0,7.57-2.56,9.35,9.35,0,0,0,6-3.3,9.93,9.93,0,0,0,2.38-6.38s2.45-3,2.58-4.82-1.24-6.31-1.24-6.31S251.84,233,246.51,232.69Z" transform="translate(-21.17 -16.3)"/><path class="cls-31" d="M204.93,226.89l2.1,8.65,5.77,6.88s1.57-9.64,9.08-15.86,20.61-4.64,22.53-4.56,9.26,8.67,9.26,8.67l-4-10.7-10.09-8.29Z" transform="translate(-21.17 -16.3)"/><path class="cls-31" d="M267.67,242.85s-14.18,18.25-27.27,21.86c-11.48,3.17-25.41-.47-28.68-1.42,4.3,1.43,21.73,8.4,34.82,2.3C256.52,260.94,264.07,249.8,267.67,242.85Z" transform="translate(-21.17 -16.3)"/><path class="cls-23" d="M168.44,127,161.78,124a.79.79,0,0,0-.95.24l-.07.09a.79.79,0,0,0,.31,1.19l6.73,3a.78.78,0,0,0,.64-1.43Z" transform="translate(-21.17 -16.3)"/><rect class="cls-16" x="193.44" y="102.27" width="41.11" height="29.46"/><rect class="cls-19" x="193.44" y="102.27" width="40.06" height="27.28"/><rect class="cls-16" x="192.21" y="99.65" width="41.11" height="29.46"/><rect class="cls-16" x="219.83" y="88.59" width="41.11" height="29.46" transform="translate(-34.11 21.55) rotate(-8.77)"/><rect class="cls-19" x="219.67" y="88.68" width="40.06" height="27.28" transform="matrix(0.99, -0.15, 0.15, 0.99, -33.97, 21.44)"/><rect class="cls-16" x="218.22" y="86.19" width="41.11" height="29.46" transform="translate(-33.76 21.28) rotate(-8.77)"/><path class="cls-4" d="M106.74,138.4a1.23,1.23,0,0,0,1.7.4l4.25-2.64-1.29-2.09-4.26,2.64A1.22,1.22,0,0,0,106.74,138.4Z" transform="translate(-21.17 -16.3)"/><circle class="cls-4" cx="116.63" cy="132.27" r="7.58" transform="translate(-80.54 104.91) rotate(-45)"/><path class="cls-22" d="M109.65,131a6.79,6.79,0,0,1,.61-2.06,6.71,6.71,0,0,1,1.23-1.79,7.17,7.17,0,0,1,3.81-2.07l.54-.07a5.21,5.21,0,0,1,.55,0h.55a4.91,4.91,0,0,1,.55,0,7,7,0,0,1,2.1.62,6.76,6.76,0,0,1,3.11,2.93,7.52,7.52,0,0,0-3.23-2.66,7.16,7.16,0,0,0-7.76,1.45A7.57,7.57,0,0,0,109.65,131Z" transform="translate(-21.17 -16.3)"/><circle class="cls-32" cx="95.47" cy="115.97" r="6.12"/><path class="cls-33" d="M110.76,134a6.13,6.13,0,0,0,11.94-.91,6.12,6.12,0,0,0-11.94.91Z" transform="translate(-21.17 -16.3)"/><g class="cls-34"><path class="cls-22" d="M120.9,129.57a.09.09,0,1,0-.16.1,4.86,4.86,0,0,1-4.11,7.46,5.09,5.09,0,0,1-.77-.06.1.1,0,0,0,0,.19,5.49,5.49,0,0,0,.8.06,5.06,5.06,0,0,0,5.06-5A5,5,0,0,0,120.9,129.57Z" transform="translate(-21.17 -16.3)"/><path class="cls-22" d="M113.79,128.33a.09.09,0,1,0-.11-.15,5,5,0,0,0-.8,7.47.11.11,0,0,0,.07,0,.08.08,0,0,0,.07,0,.11.11,0,0,0,0-.14,4.8,4.8,0,0,1-1.25-3.25A4.89,4.89,0,0,1,113.79,128.33Z" transform="translate(-21.17 -16.3)"/><path class="cls-22" d="M116.63,129.14a3.59,3.59,0,0,1,.47,0,.1.1,0,0,0,0-.19,2.74,2.74,0,0,0-.5,0,3.34,3.34,0,0,0-3.33,3.33,3.73,3.73,0,0,0,0,.48.11.11,0,0,0,.09.09h0a.1.1,0,0,0,.08-.11,3.55,3.55,0,0,1,0-.46A3.13,3.13,0,0,1,116.63,129.14Z" transform="translate(-21.17 -16.3)"/><path class="cls-22" d="M119.07,134.54a.09.09,0,0,0,0-.13.1.1,0,0,0-.14,0,3.14,3.14,0,0,1-4.61,0,.1.1,0,0,0-.14.13,3.33,3.33,0,0,0,4.89,0Z" transform="translate(-21.17 -16.3)"/><path class="cls-22" d="M118.05,129.48a3.11,3.11,0,0,1,1.72,2.79,1.93,1.93,0,0,1,0,.24.11.11,0,0,0,.09.11h0a.11.11,0,0,0,.1-.09c0-.09,0-.17,0-.26a3.31,3.31,0,0,0-1.83-3,.11.11,0,0,0-.13,0A.12.12,0,0,0,118.05,129.48Z" transform="translate(-21.17 -16.3)"/><path class="cls-22" d="M116.63,134.86a2.57,2.57,0,0,0,2.22-1.25.1.1,0,0,0-.17-.11,2.35,2.35,0,0,1-2.05,1.16.1.1,0,0,0,0,.2Z" transform="translate(-21.17 -16.3)"/><path class="cls-22" d="M118.32,130.58a.1.1,0,0,0,.14-.14,2.59,2.59,0,0,0-4.06.53.09.09,0,0,0,0,.13l0,0a.1.1,0,0,0,.08-.05,2.41,2.41,0,0,1,2.06-1.19A2.38,2.38,0,0,1,118.32,130.58Z" transform="translate(-21.17 -16.3)"/></g><path class="cls-4" d="M239.6,63.2a1.23,1.23,0,0,0-1.74,0l-3.55,3.55,1.75,1.74,3.54-3.55A1.23,1.23,0,0,0,239.6,63.2Z" transform="translate(-21.17 -16.3)"/><circle class="cls-4" cx="231.16" cy="71.7" r="7.58" transform="translate(86.92 263.79) rotate(-76.67)"/><path class="cls-22" d="M224.17,70.45a6.79,6.79,0,0,1,.61-2.06A6.71,6.71,0,0,1,226,66.6a7.24,7.24,0,0,1,3.81-2.07l.55-.07a4.89,4.89,0,0,1,.54,0h.55a4.91,4.91,0,0,1,.55,0,7,7,0,0,1,2.1.62,6.73,6.73,0,0,1,1.8,1.22A6.83,6.83,0,0,1,237.22,68,7.52,7.52,0,0,0,234,65.36a7.29,7.29,0,0,0-4.1-.44,7.18,7.18,0,0,0-3.66,1.89A7.57,7.57,0,0,0,224.17,70.45Z" transform="translate(-21.17 -16.3)"/><circle class="cls-32" cx="209.99" cy="55.4" r="6.12"/><path class="cls-33" d="M225.29,73.44a6.12,6.12,0,0,0,11.93-.91,6.12,6.12,0,0,0-11.93.91Z" transform="translate(-21.17 -16.3)"/><g class="cls-34"><path class="cls-22" d="M235.42,69a.09.09,0,1,0-.16.1,4.86,4.86,0,0,1-4.1,7.46,5.12,5.12,0,0,1-.78-.06.1.1,0,1,0,0,.19,5.52,5.52,0,0,0,.81.06,5.06,5.06,0,0,0,5.05-5A5,5,0,0,0,235.42,69Z" transform="translate(-21.17 -16.3)"/><path class="cls-22" d="M228.31,67.77a.09.09,0,0,0,0-.14.09.09,0,0,0-.13,0,5,5,0,0,0-.8,7.47.13.13,0,0,0,.07,0,.09.09,0,0,0,.07,0,.11.11,0,0,0,0-.14,4.8,4.8,0,0,1-1.25-3.25A4.86,4.86,0,0,1,228.31,67.77Z" transform="translate(-21.17 -16.3)"/><path class="cls-22" d="M231.16,68.57a3.55,3.55,0,0,1,.46,0,.09.09,0,0,0,.11-.08.1.1,0,0,0-.08-.11,2.7,2.7,0,0,0-.49,0,3.34,3.34,0,0,0-3.34,3.33,3.73,3.73,0,0,0,0,.48.11.11,0,0,0,.1.09h0a.1.1,0,0,0,.08-.11,3.55,3.55,0,0,1,0-.46A3.14,3.14,0,0,1,231.16,68.57Z" transform="translate(-21.17 -16.3)"/><path class="cls-22" d="M233.59,74a.09.09,0,0,0,0-.13.1.1,0,0,0-.14,0,3.17,3.17,0,0,1-2.29,1,3.12,3.12,0,0,1-2.31-1,.1.1,0,0,0-.14,0,.09.09,0,0,0,0,.13,3.33,3.33,0,0,0,4.89,0Z" transform="translate(-21.17 -16.3)"/><path class="cls-22" d="M232.58,68.91a3.12,3.12,0,0,1,1.71,2.79,1.93,1.93,0,0,1,0,.24.11.11,0,0,0,.09.11h0a.11.11,0,0,0,.1-.09c0-.09,0-.17,0-.26a3.31,3.31,0,0,0-1.83-3,.11.11,0,0,0-.13,0A.11.11,0,0,0,232.58,68.91Z" transform="translate(-21.17 -16.3)"/><path class="cls-22" d="M231.16,74.29A2.57,2.57,0,0,0,233.37,73a.11.11,0,0,0,0-.14.1.1,0,0,0-.14,0,2.36,2.36,0,0,1-2,1.15.1.1,0,1,0,0,.2Z" transform="translate(-21.17 -16.3)"/><path class="cls-22" d="M232.85,70a.09.09,0,0,0,.13-.13,2.53,2.53,0,0,0-1.82-.76,2.6,2.6,0,0,0-2.24,1.28.1.1,0,0,0,0,.13l0,0a.1.1,0,0,0,.08,0,2.39,2.39,0,0,1,3.76-.49Z" transform="translate(-21.17 -16.3)"/></g><path class="cls-4" d="M269.53,188.14a1.24,1.24,0,0,0,.38-1.7l-2.69-4.23-2.08,1.32,2.69,4.23A1.24,1.24,0,0,0,269.53,188.14Z" transform="translate(-21.17 -16.3)"/><circle class="cls-4" cx="263.29" cy="177.69" r="7.58" transform="translate(8.51 376.61) rotate(-76.67)"/><path class="cls-22" d="M256.3,176.44a6.94,6.94,0,0,1,.61-2.07,7,7,0,0,1,1.23-1.79,7.22,7.22,0,0,1,3.81-2.06l.55-.07c.18,0,.36,0,.54,0h.55a4.91,4.91,0,0,1,.55,0,6.91,6.91,0,0,1,5.21,3.54,7.5,7.5,0,0,0-3.23-2.65,7.11,7.11,0,0,0-7.76,1.45A7.53,7.53,0,0,0,256.3,176.44Z" transform="translate(-21.17 -16.3)"/><circle class="cls-32" cx="242.12" cy="161.39" r="6.12"/><path class="cls-33" d="M257.41,179.43a6.13,6.13,0,0,0,11.94-.91,6.12,6.12,0,0,0-11.94.91Z" transform="translate(-21.17 -16.3)"/><g class="cls-34"><path class="cls-22" d="M267.55,175a.09.09,0,1,0-.16.1,4.86,4.86,0,0,1-4.1,7.46,5.12,5.12,0,0,1-.78-.06.09.09,0,0,0-.11.08.1.1,0,0,0,.08.11,5.52,5.52,0,0,0,.81.06,5.06,5.06,0,0,0,5-5.05A5,5,0,0,0,267.55,175Z" transform="translate(-21.17 -16.3)"/><path class="cls-22" d="M260.44,173.75a.08.08,0,0,0,0-.13.09.09,0,0,0-.13,0,5,5,0,0,0-.8,7.48.11.11,0,0,0,.07,0l.07,0a.11.11,0,0,0,0-.14,4.82,4.82,0,0,1-1.25-3.25A4.88,4.88,0,0,1,260.44,173.75Z" transform="translate(-21.17 -16.3)"/><path class="cls-22" d="M263.29,174.55a3.57,3.57,0,0,1,.46,0,.09.09,0,0,0,.11-.08.09.09,0,0,0-.08-.11,2.7,2.7,0,0,0-.49,0,3.34,3.34,0,0,0-3.34,3.33,3.88,3.88,0,0,0,0,.48.11.11,0,0,0,.1.09h0a.09.09,0,0,0,.08-.11,3.4,3.4,0,0,1,0-.45A3.15,3.15,0,0,1,263.29,174.55Z" transform="translate(-21.17 -16.3)"/><path class="cls-22" d="M265.72,180a.1.1,0,0,0,0-.14.11.11,0,0,0-.14,0,3.14,3.14,0,0,1-4.61,0,.09.09,0,0,0-.13,0,.11.11,0,0,0,0,.14,3.33,3.33,0,0,0,4.89,0Z" transform="translate(-21.17 -16.3)"/><path class="cls-22" d="M264.71,174.89a3.14,3.14,0,0,1,1.71,2.8,1.93,1.93,0,0,1,0,.24.1.1,0,0,0,.09.1h0a.1.1,0,0,0,.1-.09c0-.08,0-.16,0-.25a3.31,3.31,0,0,0-1.83-3,.1.1,0,0,0-.13,0A.1.1,0,0,0,264.71,174.89Z" transform="translate(-21.17 -16.3)"/><path class="cls-22" d="M263.29,180.27A2.55,2.55,0,0,0,265.5,179a.1.1,0,0,0,0-.13.11.11,0,0,0-.14,0,2.35,2.35,0,0,1-2,1.16.09.09,0,0,0-.1.1A.09.09,0,0,0,263.29,180.27Z" transform="translate(-21.17 -16.3)"/><path class="cls-22" d="M265,176a.09.09,0,0,0,.13,0,.1.1,0,0,0,0-.14,2.54,2.54,0,0,0-1.82-.75,2.6,2.6,0,0,0-2.24,1.28.1.1,0,0,0,0,.13h.05a.09.09,0,0,0,.08,0A2.39,2.39,0,0,1,265,176Z" transform="translate(-21.17 -16.3)"/></g><path class="cls-20" d="M110.09,205.1c-.17-.41-1.18-.57-2.17-.63-3.77-7-13.3-7.23-13.3-7.23s-.77,3,3.3,7.95S102,220,102,220a17.87,17.87,0,0,0,4.3-3.52,9.94,9.94,0,0,0,2.83-8.77C109.69,206.69,110.28,205.54,110.09,205.1Z" transform="translate(-21.17 -16.3)"/><path class="cls-35" d="M201.94,211.58l-.95-3.43a1.82,1.82,0,0,0-2-1.32l-11.89,1.52a1.82,1.82,0,0,0-1.54,2.22l.89,3.7a1.81,1.81,0,0,0,2,1.37l12-1.78A1.81,1.81,0,0,0,201.94,211.58Z" transform="translate(-21.17 -16.3)"/><path class="cls-35" d="M223.54,197.93l2.78,2.23a1.83,1.83,0,0,0,2.38-.09l8.75-8.2a1.81,1.81,0,0,0,0-2.7l-2.89-2.48a1.81,1.81,0,0,0-2.45.08l-8.65,8.45A1.81,1.81,0,0,0,223.54,197.93Z" transform="translate(-21.17 -16.3)"/></g></svg>