<svg xmlns="http://www.w3.org/2000/svg" viewBox="0 0 432 191.2"><defs><style>.cls-1{fill:#603de0;}</style></defs><title>logo</title><g id="Layer_1" data-name="Layer 1"><path d="M103,93.25h22.26V106h-39V37H103Z" transform="translate(-35 -34)"/><path d="M162.78,53.71a17.06,17.06,0,0,1,6.64,7.71V51.56H186V106h-16.6V96.18a17,17,0,0,1-6.64,7.71A19.68,19.68,0,0,1,152,106.72,22.12,22.12,0,0,1,140,103.36a23.06,23.06,0,0,1-8.39-9.72,33.68,33.68,0,0,1-3.08-14.84,33.6,33.6,0,0,1,3.08-14.89A23,23,0,0,1,140,54.25,22,22,0,0,1,152,50.88,19.68,19.68,0,0,1,162.78,53.71ZM148.77,69q-3.27,3.51-3.27,9.76t3.27,9.76a12.25,12.25,0,0,0,17.28-.09q3.38-3.61,3.37-9.67t-3.37-9.71a12.3,12.3,0,0,0-17.28,0Z" transform="translate(-35 -34)"/><path d="M250.06,51.56V106H233.27V96.18a18,18,0,0,1-7,7.61,20.27,20.27,0,0,1-10.79,2.84q-9.37,0-14.89-6.25T195.1,83.19V51.56h16.59V81.14q0,5.56,2.88,8.64a10.09,10.09,0,0,0,7.76,3.08,10.27,10.27,0,0,0,8-3.22q2.92-3.23,2.93-9.18V51.56Z" transform="translate(-35 -34)"/><path d="M137.64,193.71a16.59,16.59,0,0,1,3.66,10.65q0,8.88-5.91,13.86t-16.93,5H86.33v-69h31.34q10.55,0,16.31,4.59t5.76,13.08a16.12,16.12,0,0,1-3.32,10.4,15.24,15.24,0,0,1-8.69,5.42A17.36,17.36,0,0,1,137.64,193.71ZM103,182.39H114q8.7,0,8.69-7.42t-8.88-7.42H103ZM124.22,202a7.26,7.26,0,0,0-2.45-5.81c-1.62-1.39-3.93-2.1-6.93-2.1H103v15.53h11.91Q124.21,209.63,124.22,202Z" transform="translate(-35 -34)"/><path d="M179.87,170.87a17,17,0,0,1,6.63,7.71v-9.86h16.6V223.2H186.5v-9.86a17,17,0,0,1-6.63,7.71,19.73,19.73,0,0,1-10.74,2.83,22.1,22.1,0,0,1-12.06-3.36,23.08,23.08,0,0,1-8.4-9.72,37.52,37.52,0,0,1,0-29.73,23,23,0,0,1,8.4-9.66A22,22,0,0,1,169.13,168,19.73,19.73,0,0,1,179.87,170.87Zm-14,15.33q-3.29,3.51-3.28,9.76t3.28,9.76a12.25,12.25,0,0,0,17.28-.09Q186.5,202,186.5,196t-3.36-9.71a11.37,11.37,0,0,0-8.64-3.57A11.22,11.22,0,0,0,165.86,186.2Z" transform="translate(-35 -34)"/><path d="M237.71,171.06a20.58,20.58,0,0,1,10.69-2.92V186h-4.78q-6.65,0-10.3,2.83t-3.66,9.57v24.8H213V168.72h16.7V179A23.78,23.78,0,0,1,237.71,171.06Z" transform="translate(-35 -34)"/><path d="M278.52,171.06a20.58,20.58,0,0,1,10.69-2.92V186h-4.78q-6.65,0-10.3,2.83t-3.66,9.57v24.8h-16.7V168.72h16.7V179A23.69,23.69,0,0,1,278.52,171.06Z" transform="translate(-35 -34)"/><path d="M345.84,199H308.06q.29,6.15,3.12,8.83a10.09,10.09,0,0,0,7.23,2.69,9.87,9.87,0,0,0,6.15-1.86,8.67,8.67,0,0,0,3.22-4.78h17.67a23.14,23.14,0,0,1-4.69,10.3,25,25,0,0,1-9.17,7.13,31.43,31.43,0,0,1-26.61-.78,24.1,24.1,0,0,1-9.71-9.72A30.07,30.07,0,0,1,291.75,196a30.43,30.43,0,0,1,3.47-14.89,23.71,23.71,0,0,1,9.71-9.66,32,32,0,0,1,28.51,0,23.47,23.47,0,0,1,9.52,9.32,27.71,27.71,0,0,1,3.37,13.82A22.76,22.76,0,0,1,345.84,199ZM326.56,183.9a10.6,10.6,0,0,0-7.37-2.68,11,11,0,0,0-7.62,2.73q-3,2.73-3.42,8h21.29Q329.53,186.59,326.56,183.9Z" transform="translate(-35 -34)"/><path d="M384.21,208.85V223.2h-7.52q-9.57,0-14.89-4.74t-5.32-15.67v-20h-7.32V168.72h7.32V155.35h16.7v13.37h10.93v14.06H373.18v20.31c0,2.15.44,3.64,1.31,4.49s2.36,1.27,4.45,1.27Z" transform="translate(-35 -34)"/><path d="M431.9,171.41A24.68,24.68,0,0,1,442,181.12a31.92,31.92,0,0,1,0,29.68,24.76,24.76,0,0,1-10.06,9.72,33.05,33.05,0,0,1-29,0,24.65,24.65,0,0,1-10.11-9.72,31.92,31.92,0,0,1,0-29.68,24.56,24.56,0,0,1,10.11-9.71,33,33,0,0,1,29,0ZM409.35,186q-3.27,3.47-3.27,10t3.27,10a10.69,10.69,0,0,0,8,3.42,10.56,10.56,0,0,0,8-3.42q3.22-3.42,3.22-10t-3.22-10a10.49,10.49,0,0,0-8-3.46A10.62,10.62,0,0,0,409.35,186Z" transform="translate(-35 -34)"/><path d="M467,206.5v16.7H449.72V206.5Z" transform="translate(-35 -34)"/><rect class="cls-1" width="12.2" height="191.2"/></g></svg>