<svg id="Layer_1" data-name="Layer 1" xmlns="http://www.w3.org/2000/svg" viewBox="0 0 220 150"><defs><style>.cls-1{fill:#97d3d3;}.cls-2{fill:#f1f1f1;}.cls-3{fill:none;stroke:#f1f1f1;stroke-miterlimit:10;stroke-width:0.5px;}</style></defs><title>recursosDestacados</title><rect class="cls-1" width="220" height="150"/><path class="cls-2" d="M43.22,55.5v7.77H36.75V40.05H46.4c2.8,0,4.93.71,6.41,2.12A7.46,7.46,0,0,1,55,47.82a7.91,7.91,0,0,1-1,3.94A6.92,6.92,0,0,1,51.1,54.5a10.16,10.16,0,0,1-4.7,1Zm5.27-7.68q0-2.55-2.82-2.55H43.22v5.14h2.45C47.55,50.41,48.49,49.55,48.49,47.82Z"/><path class="cls-2" d="M75.06,55.24H62.89c.11,2.07,1,3.11,2.73,3.11a2.54,2.54,0,0,0,1.57-.46A2.23,2.23,0,0,0,68,56.68h6.83a7.76,7.76,0,0,1-1.61,3.49,8.6,8.6,0,0,1-3.15,2.45A9.76,9.76,0,0,1,66,63.5a10.13,10.13,0,0,1-4.88-1.13,7.94,7.94,0,0,1-3.29-3.28,11.29,11.29,0,0,1,0-10.05,8,8,0,0,1,3.31-3.27A10.25,10.25,0,0,1,66,44.64a10.12,10.12,0,0,1,4.85,1.12,7.87,7.87,0,0,1,3.26,3.18,9.55,9.55,0,0,1,1.17,4.79A7.75,7.75,0,0,1,75.06,55.24Zm-7.15-4.83a2.79,2.79,0,0,0-2-.72,3,3,0,0,0-2.09.72,3.16,3.16,0,0,0-.93,2.14h5.74A2.68,2.68,0,0,0,67.91,50.41Z"/><path class="cls-2" d="M87,45.69a6.74,6.74,0,0,1,3.48-1V51.6H88.61a5.28,5.28,0,0,0-3.25.83,3.48,3.48,0,0,0-1.08,2.91v7.93H77.82V44.87h6.46v3.45A8.43,8.43,0,0,1,87,45.69Z"/><path class="cls-2" d="M105.4,46.41a7.71,7.71,0,0,1,2.73,4.69h-6a2.36,2.36,0,0,0-.93-1.47,2.94,2.94,0,0,0-1.73-.49,1.65,1.65,0,0,0-1.09.31,1.07,1.07,0,0,0-.38.87,1.11,1.11,0,0,0,.8,1,17.15,17.15,0,0,0,2.64.77,27.74,27.74,0,0,1,3.53,1,6.1,6.1,0,0,1,2.43,1.71,4.66,4.66,0,0,1,1,3.18,4.83,4.83,0,0,1-.89,2.86,5.76,5.76,0,0,1-2.57,1.95,10.31,10.31,0,0,1-4,.7,10.2,10.2,0,0,1-6.16-1.67A7,7,0,0,1,92,57h6.2a2,2,0,0,0,.87,1.51,3.25,3.25,0,0,0,1.85.49,1.75,1.75,0,0,0,1.15-.33,1,1,0,0,0,.39-.85,1.21,1.21,0,0,0-.83-1.15A14.35,14.35,0,0,0,98.94,56a22,22,0,0,1-3.44-.93,5.94,5.94,0,0,1-2.35-1.64,4.62,4.62,0,0,1-1-3.14,5,5,0,0,1,1.94-4.06,8.51,8.51,0,0,1,5.51-1.58A8.87,8.87,0,0,1,105.4,46.41Z"/><path class="cls-2" d="M124.84,45.77a8.46,8.46,0,0,1,3.43,3.28,10.76,10.76,0,0,1,0,10,8.5,8.5,0,0,1-3.43,3.27,11.21,11.21,0,0,1-9.89,0,8.43,8.43,0,0,1-3.45-3.27,10.78,10.78,0,0,1,0-10A8.43,8.43,0,0,1,115,45.77a11.38,11.38,0,0,1,9.89,0Zm-7.17,5.43a4.15,4.15,0,0,0-.88,2.86,4.17,4.17,0,0,0,.88,2.88,3,3,0,0,0,4.43,0,4.21,4.21,0,0,0,.89-2.87,4.15,4.15,0,0,0-.89-2.86,2.85,2.85,0,0,0-2.2-1A2.88,2.88,0,0,0,117.67,51.2Z"/><path class="cls-2" d="M149.39,46.82a8.6,8.6,0,0,1,1.81,5.76V63.27h-6.4V53.4a3.54,3.54,0,0,0-.84-2.51,2.89,2.89,0,0,0-2.24-.9,3,3,0,0,0-2.3.93,3.68,3.68,0,0,0-.85,2.58v9.77H132.1V44.87h6.47V48a5.93,5.93,0,0,1,2.29-2.37,6.89,6.89,0,0,1,3.54-.88A6.19,6.19,0,0,1,149.39,46.82Z"/><path class="cls-2" d="M164.82,45.48a5.15,5.15,0,0,1,2.12,2.31V44.87h6.43v18.4h-6.43V60.35a5.12,5.12,0,0,1-2.12,2.32,6.59,6.59,0,0,1-3.36.83,7.16,7.16,0,0,1-4-1.13,7.67,7.67,0,0,1-2.79-3.28,13,13,0,0,1,0-10.05,7.76,7.76,0,0,1,2.79-3.27,7.24,7.24,0,0,1,4-1.13A6.5,6.5,0,0,1,164.82,45.48Zm-3.67,5.8a4.65,4.65,0,0,0,0,5.58,3.4,3.4,0,0,0,4.84,0,4.51,4.51,0,0,0,0-5.54,3.16,3.16,0,0,0-2.4-1A3.21,3.21,0,0,0,161.15,51.28Z"/><path class="cls-2" d="M183.37,39V63.27h-6.46V39Z"/><path class="cls-2" d="M54.78,92.73A6.25,6.25,0,0,1,54,101a8.79,8.79,0,0,1-5.74,1.65H36.75V79.41H48A8.83,8.83,0,0,1,53.47,81a5.32,5.32,0,0,1,2,4.46,5.48,5.48,0,0,1-1.08,3.46,5.06,5.06,0,0,1-2.86,1.83A5.6,5.6,0,0,1,54.78,92.73Zm-11.56-4h3.24c1.62,0,2.43-.67,2.43-2s-.82-2.1-2.46-2.1H43.22Zm6.16,6.66q0-2.16-2.52-2.16H43.22v4.26h3.64Q49.38,97.45,49.38,95.35Z"/><path class="cls-2" d="M67.88,85.05a6.69,6.69,0,0,1,3.48-1V91H69.49a5.33,5.33,0,0,0-3.25.83,3.48,3.48,0,0,0-1.08,2.91v7.93H58.7V84.23h6.46v3.45A8.43,8.43,0,0,1,67.88,85.05Z"/><path class="cls-2" d="M83.67,84.84a5.15,5.15,0,0,1,2.12,2.31V84.23h6.43v18.4H85.79V99.72A5.15,5.15,0,0,1,83.67,102a6.49,6.49,0,0,1-3.36.83,7.18,7.18,0,0,1-4-1.13,7.58,7.58,0,0,1-2.78-3.28,12.89,12.89,0,0,1,0-10,7.58,7.58,0,0,1,2.78-3.26,7.19,7.19,0,0,1,4-1.14A6.5,6.5,0,0,1,83.67,84.84ZM80,90.65a3.9,3.9,0,0,0-.93,2.77,3.94,3.94,0,0,0,.93,2.8,3.2,3.2,0,0,0,2.45,1,3.15,3.15,0,0,0,2.39-1,4,4,0,0,0,1-2.79,3.9,3.9,0,0,0-1-2.76,3.11,3.11,0,0,0-2.39-1A3.2,3.2,0,0,0,80,90.65Z"/><path class="cls-2" d="M113.05,86.19a8.57,8.57,0,0,1,1.8,5.75v10.69h-6.39V92.76a3.54,3.54,0,0,0-.84-2.51,3.26,3.26,0,0,0-4.54,0,3.66,3.66,0,0,0-.86,2.57v9.77H95.76V84.23h6.46v3.09a6,6,0,0,1,2.3-2.37,6.86,6.86,0,0,1,3.54-.88A6.2,6.2,0,0,1,113.05,86.19Z"/><path class="cls-2" d="M128.46,84.84a5.16,5.16,0,0,1,2.1,2.31V78.36H137v24.27h-6.47V99.72a5.16,5.16,0,0,1-2.1,2.31,6.39,6.39,0,0,1-3.34.83,7.16,7.16,0,0,1-4-1.13,7.67,7.67,0,0,1-2.79-3.28,12.89,12.89,0,0,1,0-10,7.67,7.67,0,0,1,2.79-3.26,7.17,7.17,0,0,1,4-1.14A6.4,6.4,0,0,1,128.46,84.84Zm-3.65,5.81a3.86,3.86,0,0,0-.94,2.77,3.9,3.9,0,0,0,.94,2.8,3.4,3.4,0,0,0,4.83,0,3.91,3.91,0,0,0,1-2.79,3.86,3.86,0,0,0-1-2.76,3.11,3.11,0,0,0-2.39-1A3.16,3.16,0,0,0,124.81,90.65Z"/><path class="cls-2" d="M141.09,76.77a4,4,0,0,1,2.76-.93,3.89,3.89,0,0,1,2.72.93,3.09,3.09,0,0,1,1,2.38,3,3,0,0,1-1,2.3,3.91,3.91,0,0,1-2.7.91,4,4,0,0,1-2.76-.91,2.94,2.94,0,0,1-1.05-2.3A3,3,0,0,1,141.09,76.77ZM147,84.23v18.4h-6.46V84.23Z"/><path class="cls-2" d="M167.89,86.19a8.58,8.58,0,0,1,1.81,5.75v10.69h-6.4V92.76a3.54,3.54,0,0,0-.84-2.51,2.89,2.89,0,0,0-2.24-.9,2.94,2.94,0,0,0-2.3.94,3.66,3.66,0,0,0-.85,2.57v9.77h-6.46V84.23h6.46v3.09A6,6,0,0,1,159.36,85a6.9,6.9,0,0,1,3.55-.88A6.16,6.16,0,0,1,167.89,86.19Z"/><path class="cls-2" d="M183.32,84.84a5.15,5.15,0,0,1,2.12,2.31V84.23h6.43v18.21a10.83,10.83,0,0,1-1,4.64,7.67,7.67,0,0,1-3.06,3.33,9.92,9.92,0,0,1-5.21,1.24,10.71,10.71,0,0,1-6.84-2,7.88,7.88,0,0,1-3-5.47h6.33a2.3,2.3,0,0,0,1,1.41,3.65,3.65,0,0,0,2,.49c2.19,0,3.28-1.22,3.28-3.64V99.72a5.15,5.15,0,0,1-2.12,2.31,6.49,6.49,0,0,1-3.36.83,7.18,7.18,0,0,1-4-1.13,7.58,7.58,0,0,1-2.78-3.28,12.89,12.89,0,0,1,0-10A7.58,7.58,0,0,1,176,85.14,7.19,7.19,0,0,1,180,84,6.5,6.5,0,0,1,183.32,84.84Zm-3.67,5.81a3.9,3.9,0,0,0-.93,2.77,3.94,3.94,0,0,0,.93,2.8,3.42,3.42,0,0,0,4.84,0,4,4,0,0,0,.95-2.79,3.9,3.9,0,0,0-.95-2.76,3.14,3.14,0,0,0-2.4-1A3.17,3.17,0,0,0,179.65,90.65Z"/><path class="cls-3" d="M45.22,59.5v7.77H38.75V44.05H48.4c2.8,0,4.93.71,6.41,2.12A7.46,7.46,0,0,1,57,51.82a7.91,7.91,0,0,1-1,3.94A6.92,6.92,0,0,1,53.1,58.5a10.16,10.16,0,0,1-4.7,1Zm5.27-7.68q0-2.55-2.82-2.55H45.22v5.14h2.45C49.55,54.41,50.49,53.55,50.49,51.82Z"/><path class="cls-3" d="M77.06,59.24H64.89c.11,2.07,1,3.11,2.73,3.11a2.54,2.54,0,0,0,1.57-.46A2.23,2.23,0,0,0,70,60.68h6.83a7.76,7.76,0,0,1-1.61,3.49,8.6,8.6,0,0,1-3.15,2.45A9.76,9.76,0,0,1,68,67.5a10.13,10.13,0,0,1-4.88-1.13,7.94,7.94,0,0,1-3.29-3.28,11.29,11.29,0,0,1,0-10.05,8,8,0,0,1,3.31-3.27A10.25,10.25,0,0,1,68,48.64a10.12,10.12,0,0,1,4.85,1.12,7.87,7.87,0,0,1,3.26,3.18,9.55,9.55,0,0,1,1.17,4.79A7.75,7.75,0,0,1,77.06,59.24Zm-7.15-4.83a2.79,2.79,0,0,0-2-.72,3,3,0,0,0-2.09.72,3.16,3.16,0,0,0-.93,2.14h5.74A2.68,2.68,0,0,0,69.91,54.41Z"/><path class="cls-3" d="M89,49.69a6.74,6.74,0,0,1,3.48-1V55.6H90.61a5.28,5.28,0,0,0-3.25.83,3.48,3.48,0,0,0-1.08,2.91v7.93H79.82V48.87h6.46v3.45A8.43,8.43,0,0,1,89,49.69Z"/><path class="cls-3" d="M107.4,50.41a7.71,7.71,0,0,1,2.73,4.69h-6a2.36,2.36,0,0,0-.93-1.47,2.94,2.94,0,0,0-1.73-.49,1.65,1.65,0,0,0-1.09.31,1.07,1.07,0,0,0-.38.87,1.11,1.11,0,0,0,.8,1,17.15,17.15,0,0,0,2.64.77,27.74,27.74,0,0,1,3.53,1,6.1,6.1,0,0,1,2.43,1.71,4.66,4.66,0,0,1,1,3.18,4.83,4.83,0,0,1-.89,2.86,5.76,5.76,0,0,1-2.57,2,10.31,10.31,0,0,1-4,.7,10.2,10.2,0,0,1-6.16-1.67A7,7,0,0,1,94,61h6.2a2,2,0,0,0,.87,1.51,3.25,3.25,0,0,0,1.85.49,1.75,1.75,0,0,0,1.15-.33,1,1,0,0,0,.39-.85,1.21,1.21,0,0,0-.83-1.15,14.35,14.35,0,0,0-2.68-.72,22,22,0,0,1-3.44-.93,5.94,5.94,0,0,1-2.35-1.64,4.62,4.62,0,0,1-1-3.14,5,5,0,0,1,1.94-4.06,8.51,8.51,0,0,1,5.51-1.58A8.87,8.87,0,0,1,107.4,50.41Z"/><path class="cls-3" d="M126.84,49.77a8.46,8.46,0,0,1,3.43,3.28,10.76,10.76,0,0,1,0,10,8.5,8.5,0,0,1-3.43,3.27,11.21,11.21,0,0,1-9.89,0,8.43,8.43,0,0,1-3.45-3.27,10.78,10.78,0,0,1,0-10A8.43,8.43,0,0,1,117,49.77a11.38,11.38,0,0,1,9.89,0Zm-7.17,5.43a4.15,4.15,0,0,0-.88,2.86,4.17,4.17,0,0,0,.88,2.88,3,3,0,0,0,4.43,0,4.21,4.21,0,0,0,.89-2.87,4.15,4.15,0,0,0-.89-2.86,2.85,2.85,0,0,0-2.2-1A2.88,2.88,0,0,0,119.67,55.2Z"/><path class="cls-3" d="M151.39,50.82a8.6,8.6,0,0,1,1.81,5.76V67.27h-6.4V57.4a3.54,3.54,0,0,0-.84-2.51,2.89,2.89,0,0,0-2.24-.9,3,3,0,0,0-2.3.93,3.68,3.68,0,0,0-.85,2.58v9.77H134.1V48.87h6.47V52a5.93,5.93,0,0,1,2.29-2.37,6.89,6.89,0,0,1,3.54-.88A6.19,6.19,0,0,1,151.39,50.82Z"/><path class="cls-3" d="M166.82,49.48a5.15,5.15,0,0,1,2.12,2.31V48.87h6.43v18.4h-6.43V64.35a5.12,5.12,0,0,1-2.12,2.32,6.59,6.59,0,0,1-3.36.83,7.16,7.16,0,0,1-4-1.13,7.67,7.67,0,0,1-2.79-3.28,13,13,0,0,1,0-10.05,7.76,7.76,0,0,1,2.79-3.27,7.24,7.24,0,0,1,4-1.13A6.5,6.5,0,0,1,166.82,49.48Zm-3.67,5.8a4.65,4.65,0,0,0,0,5.58,3.4,3.4,0,0,0,4.84,0,4.51,4.51,0,0,0,0-5.54,3.16,3.16,0,0,0-2.4-1A3.21,3.21,0,0,0,163.15,55.28Z"/><path class="cls-3" d="M185.37,43V67.27h-6.46V43Z"/><path class="cls-3" d="M56.78,96.73A6.25,6.25,0,0,1,56,105a8.79,8.79,0,0,1-5.74,1.65H38.75V83.41H50A8.83,8.83,0,0,1,55.47,85a5.32,5.32,0,0,1,2,4.46,5.48,5.48,0,0,1-1.08,3.46,5.06,5.06,0,0,1-2.86,1.83A5.6,5.6,0,0,1,56.78,96.73Zm-11.56-4h3.24c1.62,0,2.43-.67,2.43-2s-.82-2.1-2.46-2.1H45.22Zm6.16,6.66q0-2.16-2.52-2.16H45.22v4.26h3.64Q51.38,101.45,51.38,99.35Z"/><path class="cls-3" d="M69.88,89.05a6.69,6.69,0,0,1,3.48-1V95H71.49a5.33,5.33,0,0,0-3.25.83,3.48,3.48,0,0,0-1.08,2.91v7.93H60.7V88.23h6.46v3.45A8.43,8.43,0,0,1,69.88,89.05Z"/><path class="cls-3" d="M85.67,88.84a5.15,5.15,0,0,1,2.12,2.31V88.23h6.43v18.4H87.79v-2.91A5.15,5.15,0,0,1,85.67,106a6.49,6.49,0,0,1-3.36.83,7.18,7.18,0,0,1-4-1.13,7.58,7.58,0,0,1-2.78-3.28,12.89,12.89,0,0,1,0-10,7.58,7.58,0,0,1,2.78-3.26,7.19,7.19,0,0,1,4-1.14A6.5,6.5,0,0,1,85.67,88.84ZM82,94.65a3.9,3.9,0,0,0-.93,2.77,3.94,3.94,0,0,0,.93,2.8,3.2,3.2,0,0,0,2.45,1,3.15,3.15,0,0,0,2.39-1,4,4,0,0,0,1-2.79,3.9,3.9,0,0,0-1-2.76,3.11,3.11,0,0,0-2.39-1A3.2,3.2,0,0,0,82,94.65Z"/><path class="cls-3" d="M115.05,90.19a8.57,8.57,0,0,1,1.8,5.75v10.69h-6.39V96.76a3.54,3.54,0,0,0-.84-2.51,3.26,3.26,0,0,0-4.54,0,3.66,3.66,0,0,0-.86,2.57v9.77H97.76V88.23h6.46v3.09a6,6,0,0,1,2.3-2.37,6.86,6.86,0,0,1,3.54-.88A6.2,6.2,0,0,1,115.05,90.19Z"/><path class="cls-3" d="M130.46,88.84a5.16,5.16,0,0,1,2.1,2.31V82.36H139v24.27h-6.47v-2.91a5.16,5.16,0,0,1-2.1,2.31,6.39,6.39,0,0,1-3.34.83,7.16,7.16,0,0,1-4-1.13,7.67,7.67,0,0,1-2.79-3.28,12.89,12.89,0,0,1,0-10,7.67,7.67,0,0,1,2.79-3.26,7.17,7.17,0,0,1,4-1.14A6.4,6.4,0,0,1,130.46,88.84Zm-3.65,5.81a3.86,3.86,0,0,0-.94,2.77,3.9,3.9,0,0,0,.94,2.8,3.4,3.4,0,0,0,4.83,0,3.91,3.91,0,0,0,1-2.79,3.86,3.86,0,0,0-1-2.76,3.11,3.11,0,0,0-2.39-1A3.16,3.16,0,0,0,126.81,94.65Z"/><path class="cls-3" d="M143.09,80.77a4,4,0,0,1,2.76-.93,3.89,3.89,0,0,1,2.72.93,3.09,3.09,0,0,1,1,2.38,3,3,0,0,1-1,2.3,3.91,3.91,0,0,1-2.7.91,4,4,0,0,1-2.76-.91,2.94,2.94,0,0,1-1.05-2.3A3,3,0,0,1,143.09,80.77ZM149,88.23v18.4h-6.46V88.23Z"/><path class="cls-3" d="M169.89,90.19a8.58,8.58,0,0,1,1.81,5.75v10.69h-6.4V96.76a3.54,3.54,0,0,0-.84-2.51,2.89,2.89,0,0,0-2.24-.9,2.94,2.94,0,0,0-2.3.94,3.66,3.66,0,0,0-.85,2.57v9.77h-6.46V88.23h6.46v3.09A6,6,0,0,1,161.36,89a6.9,6.9,0,0,1,3.55-.88A6.16,6.16,0,0,1,169.89,90.19Z"/><path class="cls-3" d="M185.32,88.84a5.15,5.15,0,0,1,2.12,2.31V88.23h6.43v18.21a10.83,10.83,0,0,1-1,4.64,7.67,7.67,0,0,1-3.06,3.33,9.92,9.92,0,0,1-5.21,1.24,10.71,10.71,0,0,1-6.84-2,7.88,7.88,0,0,1-3-5.47h6.33a2.3,2.3,0,0,0,1,1.41,3.65,3.65,0,0,0,2,.49c2.19,0,3.28-1.22,3.28-3.64v-2.72a5.15,5.15,0,0,1-2.12,2.31,6.49,6.49,0,0,1-3.36.83,7.18,7.18,0,0,1-4-1.13,7.58,7.58,0,0,1-2.78-3.28,12.89,12.89,0,0,1,0-10A7.58,7.58,0,0,1,178,89.14,7.19,7.19,0,0,1,182,88,6.5,6.5,0,0,1,185.32,88.84Zm-3.67,5.81a3.9,3.9,0,0,0-.93,2.77,3.94,3.94,0,0,0,.93,2.8,3.42,3.42,0,0,0,4.84,0,4,4,0,0,0,.95-2.79,3.9,3.9,0,0,0-.95-2.76,3.14,3.14,0,0,0-2.4-1A3.17,3.17,0,0,0,181.65,94.65Z"/></svg>