<svg id="Layer_1" data-name="Layer 1" xmlns="http://www.w3.org/2000/svg" viewBox="0 0 220 150"><defs><style>.cls-1{fill:#97d3d3;}.cls-2{fill:#603de0;}.cls-3{fill:#f1f1f1;}</style></defs><title>recursosDestacados</title><rect class="cls-1" width="220" height="150"/><path class="cls-2" d="M163.2,20.55c-11.35,1.1-21.14,8.31-29.45,16.12s-16,16.59-25.9,22.17c-10.41,5.84-22.61,7.74-33.28,13.08-7.91,4-15,10-18.87,18s-4,18,.87,25.35C65.19,128.31,84,128.3,99.62,126.84l58.54-5.49c15.47-1.45,32.44-3.62,42.91-15.1,8.75-9.59,10.77-24,7.56-36.59C204.1,51.92,184.59,18.48,163.2,20.55Z"/><path class="cls-3" d="M53.14,47.61V63.08H48.86V54.3L46,63.08H42.27L39.4,54.3v8.78H35.07V47.61h5.29l3.82,10,3.71-10Z"/><path class="cls-3" d="M65.34,60.49H59.83L59,63.08H54.43l5.69-15.47h5l5.66,15.47H66.19Zm-1.08-3.25L62.6,52.19l-1.69,5.05Z"/><path class="cls-3" d="M79.93,63.08,76.8,57.35h-.44v5.73H72V47.54h6.83a7.11,7.11,0,0,1,3.17.65A4.5,4.5,0,0,1,84,50a5,5,0,0,1,.66,2.56,4.58,4.58,0,0,1-.9,2.83A4.76,4.76,0,0,1,81.16,57l3.54,6Zm-3.57-8.63h2.13c1.19,0,1.79-.54,1.79-1.62a1.66,1.66,0,0,0-.44-1.21,1.87,1.87,0,0,0-1.35-.44H76.36Z"/><path class="cls-3" d="M94.77,55.14l6,7.94h-5.2l-4.89-6.87v6.87H86.36V47.54h4.33v6.72l4.93-6.72h5.16Z"/><path class="cls-3" d="M106.53,51v2.56h5v3.27h-5v2.81h5.69v3.45h-10V47.54h10V51Z"/><path class="cls-3" d="M125.89,47.54V51H121.7V63.08h-4.3V51h-4.15V47.54Z"/><path class="cls-3" d="M131.64,47.54V63.08h-4.32V47.54Z"/><path class="cls-3" d="M148.38,63.08h-4.32l-5.71-8.67v8.67H134V47.56h4.32l5.71,8.78V47.56h4.32Z"/><path class="cls-3" d="M163,48.86a5.92,5.92,0,0,1,2.31,3.9h-4.55a2.48,2.48,0,0,0-1-1,3.24,3.24,0,0,0-1.6-.38,3.17,3.17,0,0,0-2.51,1.07,4.11,4.11,0,0,0-.94,2.84,4.29,4.29,0,0,0,1,3.06,3.87,3.87,0,0,0,2.93,1,3.53,3.53,0,0,0,1.93-.52,3.58,3.58,0,0,0,1.32-1.56h-4.3V54.23h7.88v4.28a8.22,8.22,0,0,1-2.67,3.31,7.52,7.52,0,0,1-4.62,1.37,8.31,8.31,0,0,1-4.15-1,6.88,6.88,0,0,1-2.73-2.8,8.7,8.7,0,0,1-.95-4.1,8.6,8.6,0,0,1,.95-4.09A6.81,6.81,0,0,1,154,48.41a8.18,8.18,0,0,1,4.13-1A7.83,7.83,0,0,1,163,48.86Z"/><path class="cls-3" d="M44.88,86.83h-5.5l-.86,2.59H34l5.68-15.48h5l5.67,15.48H45.74Zm-1.07-3.25-1.67-5-1.69,5Z"/><path class="cls-3" d="M55.79,73.88v8.86a3.17,3.17,0,0,0,.58,2,2.15,2.15,0,0,0,1.77.72,2.18,2.18,0,0,0,1.79-.73,3.06,3.06,0,0,0,.6-2V73.88h4.3v8.86A7.33,7.33,0,0,1,64,86.47a5.83,5.83,0,0,1-2.43,2.32,7.54,7.54,0,0,1-3.47.78,7.35,7.35,0,0,1-3.41-.77,5.4,5.4,0,0,1-2.31-2.3,7.77,7.77,0,0,1-.84-3.76V73.88Z"/><path class="cls-3" d="M78.81,73.88v3.44H74.62v12.1h-4.3V77.32H66.17V73.88Z"/><path class="cls-3" d="M91.73,74.66a7.34,7.34,0,0,1,2.85,2.84,8.59,8.59,0,0,1,0,8.21,7.57,7.57,0,0,1-2.86,2.84,8.31,8.31,0,0,1-8,0,7.55,7.55,0,0,1-2.88-2.84,8.55,8.55,0,0,1,0-8.21,7.48,7.48,0,0,1,2.88-2.84,8.35,8.35,0,0,1,8,0Zm-6.6,4a4.93,4.93,0,0,0,0,5.79,3.3,3.3,0,0,0,2.59,1.07,3.26,3.26,0,0,0,2.57-1.07,4.22,4.22,0,0,0,.94-2.88,4.27,4.27,0,0,0-.93-2.91,3.24,3.24,0,0,0-2.58-1.06A3.29,3.29,0,0,0,85.13,78.69Z"/><path class="cls-3" d="M115.62,73.94V89.42h-4.28V80.64l-2.88,8.78h-3.71l-2.87-8.78v8.78H97.56V73.94h5.28l3.82,10,3.71-10Z"/><path class="cls-3" d="M127.82,86.83h-5.51l-.85,2.59h-4.55l5.69-15.48h5l5.66,15.48h-4.56Zm-1.08-3.25-1.66-5-1.69,5Z"/><path class="cls-3" d="M146.21,73.88v3.44H142v12.1h-4.3V77.32h-4.15V73.88Z"/><path class="cls-3" d="M152,73.88V89.42h-4.32V73.88Z"/><path class="cls-3" d="M165.84,74.66a7.43,7.43,0,0,1,2.86,2.84,8.14,8.14,0,0,1,1,4.1,8,8,0,0,1-1.06,4.11,7.5,7.5,0,0,1-2.86,2.84,8,8,0,0,1-4,1,8.07,8.07,0,0,1-4-1A7.53,7.53,0,0,1,155,85.71a8.55,8.55,0,0,1,0-8.21,7.46,7.46,0,0,1,2.87-2.84,8.07,8.07,0,0,1,4-1A8,8,0,0,1,165.84,74.66Zm-6.59,4a4.89,4.89,0,0,0,0,5.79,3.65,3.65,0,0,0,5.16,0,4.95,4.95,0,0,0,0-5.79,3.68,3.68,0,0,0-5.17,0Z"/><path class="cls-3" d="M186,89.42H181.7L176,80.75v8.67h-4.32V73.9H176l5.71,8.78V73.9H186Z"/><path class="cls-3" d="M37.78,105.7H41.2V108H34.73V97h3.05Z"/><path class="cls-3" d="M47.16,99.6a2.45,2.45,0,0,1,1,1.09V99.31h3V108h-3v-1.38a2.45,2.45,0,0,1-1,1.09,3.12,3.12,0,0,1-1.59.39,3.35,3.35,0,0,1-1.87-.53A3.61,3.61,0,0,1,42.38,106a5.52,5.52,0,0,1-.48-2.38,5.45,5.45,0,0,1,.48-2.37,3.64,3.64,0,0,1,1.32-1.54,3.35,3.35,0,0,1,1.87-.53A3.12,3.12,0,0,1,47.16,99.6Zm-1.74,2.74a1.87,1.87,0,0,0-.44,1.31,1.9,1.9,0,0,0,.44,1.33,1.54,1.54,0,0,0,1.16.47,1.49,1.49,0,0,0,1.13-.48,1.85,1.85,0,0,0,.45-1.32,1.82,1.82,0,0,0-.45-1.3,1.49,1.49,0,0,0-1.13-.48A1.54,1.54,0,0,0,45.42,102.34Z"/><path class="cls-3" d="M60.54,99.6a2.4,2.4,0,0,1,1,1.09V99.31h3v8.6a5,5,0,0,1-.47,2.19,3.65,3.65,0,0,1-1.44,1.58,4.72,4.72,0,0,1-2.46.59,5.09,5.09,0,0,1-3.23-1,3.7,3.7,0,0,1-1.4-2.59h3a1.07,1.07,0,0,0,.46.67,1.79,1.79,0,0,0,1,.23c1,0,1.55-.57,1.55-1.72v-1.28a2.4,2.4,0,0,1-1,1.09,3.12,3.12,0,0,1-1.59.39,3.37,3.37,0,0,1-1.87-.53A3.61,3.61,0,0,1,55.76,106a5.52,5.52,0,0,1-.48-2.38,5.45,5.45,0,0,1,.48-2.37,3.64,3.64,0,0,1,1.32-1.54A3.37,3.37,0,0,1,59,99.21,3.12,3.12,0,0,1,60.54,99.6Zm-1.73,2.74a1.82,1.82,0,0,0-.44,1.31,1.86,1.86,0,0,0,.44,1.33,1.51,1.51,0,0,0,1.15.47,1.47,1.47,0,0,0,1.13-.48,1.85,1.85,0,0,0,.45-1.32,1.82,1.82,0,0,0-.45-1.3,1.47,1.47,0,0,0-1.13-.48A1.51,1.51,0,0,0,58.81,102.34Z"/><path class="cls-3" d="M75.17,99.31V108h-3v-1.46a2.77,2.77,0,0,1-1.09,1.11,3.21,3.21,0,0,1-1.67.42,2.93,2.93,0,0,1-2.36-1,4,4,0,0,1-.86-2.73v-5h3V104a1.69,1.69,0,0,0,.4,1.17,1.39,1.39,0,0,0,1.06.42,1.41,1.41,0,0,0,1.09-.43,1.77,1.77,0,0,0,.4-1.22V99.31Z"/><path class="cls-3" d="M80.86,97.18,77,98.71v-2l3.87-1.76Zm-.6,2.13V108H77.2v-8.7Z"/><path class="cls-3" d="M87.08,99.6a2.45,2.45,0,0,1,1,1.09V99.31h3V108h-3v-1.38a2.45,2.45,0,0,1-1,1.09,3.12,3.12,0,0,1-1.59.39,3.35,3.35,0,0,1-1.87-.53A3.61,3.61,0,0,1,82.3,106a5.52,5.52,0,0,1-.48-2.38,5.45,5.45,0,0,1,.48-2.37,3.64,3.64,0,0,1,1.32-1.54,3.35,3.35,0,0,1,1.87-.53A3.12,3.12,0,0,1,87.08,99.6Zm-1.74,2.74a1.87,1.87,0,0,0-.44,1.31,1.9,1.9,0,0,0,.44,1.33,1.54,1.54,0,0,0,1.16.47,1.49,1.49,0,0,0,1.13-.48,1.85,1.85,0,0,0,.45-1.32,1.82,1.82,0,0,0-.45-1.3,1.49,1.49,0,0,0-1.13-.48A1.54,1.54,0,0,0,85.34,102.34Z"/><path class="cls-3" d="M100.46,99.6a2.49,2.49,0,0,1,1,1.09V96.54h3V108h-3v-1.38a2.49,2.49,0,0,1-1,1.09,3.09,3.09,0,0,1-1.58.39,3.4,3.4,0,0,1-1.88-.53A3.59,3.59,0,0,1,95.69,106a5.38,5.38,0,0,1-.49-2.38,5.31,5.31,0,0,1,.49-2.37A3.62,3.62,0,0,1,97,99.74a3.4,3.4,0,0,1,1.88-.53A3.09,3.09,0,0,1,100.46,99.6Zm-1.73,2.74a1.82,1.82,0,0,0-.44,1.31,1.86,1.86,0,0,0,.44,1.33,1.51,1.51,0,0,0,1.15.47A1.46,1.46,0,0,0,101,105a1.85,1.85,0,0,0,.45-1.32,1.82,1.82,0,0,0-.45-1.3,1.46,1.46,0,0,0-1.13-.48A1.51,1.51,0,0,0,98.73,102.34Z"/><path class="cls-3" d="M114.44,104.21H108.7c0,1,.48,1.47,1.28,1.47a1.21,1.21,0,0,0,.75-.22,1.07,1.07,0,0,0,.4-.57h3.22a3.57,3.57,0,0,1-.76,1.65,4.14,4.14,0,0,1-1.48,1.16,5.1,5.1,0,0,1-4.27-.12,3.76,3.76,0,0,1-1.56-1.55,4.9,4.9,0,0,1-.56-2.38,4.83,4.83,0,0,1,.56-2.37,3.76,3.76,0,0,1,1.57-1.54,4.75,4.75,0,0,1,2.29-.53,4.8,4.8,0,0,1,2.29.52,3.68,3.68,0,0,1,1.54,1.51,4.48,4.48,0,0,1,.55,2.26A3.15,3.15,0,0,1,114.44,104.21Zm-3.37-2.28a1.36,1.36,0,0,0-.93-.34,1.49,1.49,0,0,0-1,.34,1.51,1.51,0,0,0-.44,1h2.71A1.26,1.26,0,0,0,111.07,101.93Z"/><path class="cls-3" d="M120.22,98.4a1.22,1.22,0,0,0-.79.21,1,1,0,0,0-.29.7h1.41v2.54h-1.43V108h-3.05v-6.16h-1V99.31h1a3.36,3.36,0,0,1,1-2.59,4.05,4.05,0,0,1,2.85-.92l.64,0v2.59Z"/><path class="cls-3" d="M121.83,95.79a1.94,1.94,0,0,1,1.31-.44,1.84,1.84,0,0,1,1.28.44,1.45,1.45,0,0,1,.48,1.12,1.38,1.38,0,0,1-.49,1.09,1.83,1.83,0,0,1-1.27.43,1.93,1.93,0,0,1-1.31-.43,1.38,1.38,0,0,1-.49-1.09A1.43,1.43,0,0,1,121.83,95.79Zm2.81,3.52V108h-3v-8.7Z"/><path class="cls-3" d="M134.49,100.24a4,4,0,0,1,.85,2.71V108h-3v-4.67a1.68,1.68,0,0,0-.39-1.18,1.37,1.37,0,0,0-1.06-.43,1.42,1.42,0,0,0-1.09.44,1.74,1.74,0,0,0-.4,1.22V108h-3v-8.7h3v1.46a2.81,2.81,0,0,1,1.08-1.11,3.27,3.27,0,0,1,1.68-.42A2.91,2.91,0,0,1,134.49,100.24Z"/><path class="cls-3" d="M137.22,95.79a1.89,1.89,0,0,1,1.3-.44,1.85,1.85,0,0,1,1.29.44,1.45,1.45,0,0,1,.48,1.12A1.41,1.41,0,0,1,139.8,98a1.85,1.85,0,0,1-1.28.43,1.89,1.89,0,0,1-1.3-.43,1.39,1.39,0,0,1-.5-1.09A1.44,1.44,0,0,1,137.22,95.79Zm2.8,3.52V108H137v-8.7Z"/><path class="cls-3" d="M146.89,105.4V108h-1.26a3.66,3.66,0,0,1-2.49-.79,3.33,3.33,0,0,1-.9-2.62v-2.75h-1.12V99.31h1.12v-2.1h3v2.1h1.56v2.54h-1.56v2.81a.75.75,0,0,0,.18.57.8.8,0,0,0,.59.17Z"/><path class="cls-3" d="M148.53,95.79a1.89,1.89,0,0,1,1.3-.44,1.82,1.82,0,0,1,1.28.44,1.45,1.45,0,0,1,.48,1.12,1.4,1.4,0,0,1-.48,1.09,2.15,2.15,0,0,1-2.58,0,1.39,1.39,0,0,1-.5-1.09A1.44,1.44,0,0,1,148.53,95.79Zm2.8,3.52V108h-3.05v-8.7Z"/><path class="cls-3" d="M157.23,105.08l1.64-5.77h3.24l-3,8.7h-3.78l-3-8.7h3.25Z"/><path class="cls-3" d="M167.93,99.6a2.45,2.45,0,0,1,1,1.09V99.31h3V108h-3v-1.38a2.45,2.45,0,0,1-1,1.09,3.12,3.12,0,0,1-1.59.39,3.37,3.37,0,0,1-1.87-.53,3.61,3.61,0,0,1-1.32-1.55,5.52,5.52,0,0,1-.48-2.38,5.45,5.45,0,0,1,.48-2.37,3.64,3.64,0,0,1,1.32-1.54,3.37,3.37,0,0,1,1.87-.53A3.12,3.12,0,0,1,167.93,99.6Zm-1.73,2.74a1.83,1.83,0,0,0-.45,1.31,1.86,1.86,0,0,0,.45,1.33,1.61,1.61,0,0,0,2.28,0,1.85,1.85,0,0,0,.45-1.32,1.82,1.82,0,0,0-.45-1.3,1.61,1.61,0,0,0-2.28,0Z"/></svg>