<svg id="Layer_1" data-name="Layer 1" xmlns="http://www.w3.org/2000/svg" viewBox="0 0 220 150"><defs><style>.cls-1{fill:#603de0;}.cls-2{fill:none;stroke:#f1f1f1;stroke-miterlimit:10;stroke-width:0.5px;}.cls-3{fill:#f1f1f1;}</style></defs><title>recursosDestacados</title><rect class="cls-1" width="220" height="150"/><path class="cls-2" d="M33.1,73.56h6.14V77.7H27.63V58H33.1Z"/><path class="cls-2" d="M46.77,58V77.7H41.3V58Z"/><path class="cls-2" d="M68,77.7H62.5l-7.22-11v11H49.8V58.05h5.48L62.5,69.17V58.05H68Z"/><path class="cls-2" d="M81.65,67.64,89.26,77.7H82.68L76.48,69v8.7H71V58h5.48v8.51L82.73,58h6.53Z"/><path class="cls-2" d="M96.54,62.38v3.26h6.37v4.14H96.54v3.55h7.2V77.7H91.07V58h12.67v4.36Z"/><path class="cls-2" d="M123.05,72.9a9,9,0,0,1-3.55,3.52,11.05,11.05,0,0,1-5.42,1.28h-7.84V58h7.84a11.33,11.33,0,0,1,5.43,1.24,8.61,8.61,0,0,1,3.56,3.46,10.32,10.32,0,0,1,1.23,5.08A10.2,10.2,0,0,1,123.05,72.9Zm-5.67-1.4a5.59,5.59,0,0,0,0-7.38,5.28,5.28,0,0,0-3.8-1.32h-1.86v10h1.86A5.32,5.32,0,0,0,117.38,71.5Z"/><path class="cls-2" d="M132.22,58V77.7h-5.47V58Z"/><path class="cls-2" d="M153.43,77.7H148l-7.22-11v11h-5.48V58.05h5.48L148,69.17V58.05h5.48Z"/><path class="cls-2" d="M160.4,63.16V58h8.67V77.7h-5.72V63.16Z"/><path class="cls-2" d="M171.6,67.64a12.06,12.06,0,0,1,2-7.27q2-2.68,6.1-2.68t6.11,2.69a12,12,0,0,1,2,7.26,12.06,12.06,0,0,1-2,7.28q-2,2.68-6.11,2.69t-6.1-2.69A12.13,12.13,0,0,1,171.6,67.64Zm10.76,0a9.14,9.14,0,0,0-.55-3.53,2.47,2.47,0,0,0-4.3,0,9,9,0,0,0-.55,3.53,9,9,0,0,0,.55,3.55,2.47,2.47,0,0,0,4.3,0A9.22,9.22,0,0,0,182.36,67.64Z"/><path class="cls-2" d="M189,63.16V58h8.68V77.7H192V63.16Z"/><path class="cls-2" d="M35.71,85.73v2.56H32.59v9h-3.2v-9H26.3V85.73Z"/><path class="cls-2" d="M41.34,88.54a3.26,3.26,0,0,1,1.73-.49v3.42h-.93a2.61,2.61,0,0,0-1.62.42A1.73,1.73,0,0,0,40,93.34v4H36.77V88.13H40v1.71A4.12,4.12,0,0,1,41.34,88.54Z"/><path class="cls-2" d="M44.39,84.41A2,2,0,0,1,45.76,84a1.93,1.93,0,0,1,1.36.46,1.54,1.54,0,0,1,.5,1.19,1.47,1.47,0,0,1-.51,1.14,1.92,1.92,0,0,1-1.35.46,2,2,0,0,1-1.37-.46,1.45,1.45,0,0,1-.52-1.14A1.52,1.52,0,0,1,44.39,84.41Zm3,3.72v9.16H44.13V88.13Z"/><path class="cls-2" d="M56.29,89a4.38,4.38,0,0,1,1.52,2.74H54.42A1.35,1.35,0,0,0,54,91a1.16,1.16,0,0,0-.78-.25,1.12,1.12,0,0,0-.95.49,2.41,2.41,0,0,0-.37,1.45,2.35,2.35,0,0,0,.37,1.45,1.12,1.12,0,0,0,.95.49,1.16,1.16,0,0,0,.78-.25,1.35,1.35,0,0,0,.42-.73h3.39a4.38,4.38,0,0,1-1.52,2.74,4.5,4.5,0,0,1-3,1,5.11,5.11,0,0,1-2.42-.56,4,4,0,0,1-1.64-1.64,5.59,5.59,0,0,1,0-5,3.91,3.91,0,0,1,1.65-1.62A5,5,0,0,1,53.3,88,4.55,4.55,0,0,1,56.29,89Z"/><path class="cls-2" d="M64.81,97.29,62.32,93.5v3.79H59.1V85.21h3.22v6.48l2.51-3.56h3.74L65,92.72l3.66,4.57Z"/><path class="cls-2" d="M75.93,88.9a3.83,3.83,0,0,1,1.36,2.33h-3a1.14,1.14,0,0,0-.46-.73,1.43,1.43,0,0,0-.86-.25.82.82,0,0,0-.55.16.53.53,0,0,0-.19.43.55.55,0,0,0,.4.51,9,9,0,0,0,1.32.39,11.35,11.35,0,0,1,1.75.49,2.89,2.89,0,0,1,1.21.84,2.36,2.36,0,0,1,.52,1.59A2.44,2.44,0,0,1,77,96.08a2.94,2.94,0,0,1-1.29,1,6,6,0,0,1-5-.48,3.53,3.53,0,0,1-1.39-2.39h3.09a1,1,0,0,0,.43.76,1.66,1.66,0,0,0,.92.24.91.91,0,0,0,.58-.16.53.53,0,0,0,.19-.43A.6.6,0,0,0,74,94a6.91,6.91,0,0,0-1.33-.36A11.36,11.36,0,0,1,71,93.2a2.87,2.87,0,0,1-1.17-.82,2.28,2.28,0,0,1-.49-1.56,2.48,2.48,0,0,1,1-2A4.18,4.18,0,0,1,73,88,4.42,4.42,0,0,1,75.93,88.9Z"/><path class="cls-2" d="M89.1,97.29l-1-1.26a3.28,3.28,0,0,1-.3.33,3,3,0,0,1-1.1.76,3.73,3.73,0,0,1-1.49.28,4.17,4.17,0,0,1-2.07-.48,3.18,3.18,0,0,1-1.31-1.31,3.87,3.87,0,0,1-.44-1.83,3.61,3.61,0,0,1,.69-2.25,3,3,0,0,1,1.79-1.15l-.2-.34a3.68,3.68,0,0,1-.39-1.59,2.56,2.56,0,0,1,.41-1.38A2.9,2.9,0,0,1,84.9,86a4.26,4.26,0,0,1,1.9-.4c1.85,0,3,.74,3.53,2.21a5,5,0,0,1,.23,1.78h-3a3.6,3.6,0,0,0,0-.64c0-.46-.25-.69-.65-.69a.57.57,0,0,0-.42.15.53.53,0,0,0-.15.39.87.87,0,0,0,.09.4,4.81,4.81,0,0,0,.33.52l5.58,7.56ZM86,94.45a1,1,0,0,0,.3-.74A.94.94,0,0,0,86,93a1.17,1.17,0,0,0-.8-.29,1.07,1.07,0,0,0-.76.27,1,1,0,0,0-.3.74,1,1,0,0,0,.31.76,1.22,1.22,0,0,0,1.58,0Z"/><path class="cls-2" d="M106.57,85.73V97.29h-3.2V92.62H99.45v4.67H96.24V85.73h3.21v4.32h3.92V85.73Z"/><path class="cls-2" d="M113.42,88.43a2.6,2.6,0,0,1,1,1.15V88.13h3.2v9.16h-3.2V95.83a2.54,2.54,0,0,1-1,1.15,3.21,3.21,0,0,1-1.67.42,3.65,3.65,0,0,1-2-.56,3.83,3.83,0,0,1-1.39-1.64,6.5,6.5,0,0,1,0-5,3.77,3.77,0,0,1,1.39-1.62,3.58,3.58,0,0,1,2-.57A3.21,3.21,0,0,1,113.42,88.43Zm-1.83,2.89a2.32,2.32,0,0,0,0,2.77,1.7,1.7,0,0,0,2.41,0,2,2,0,0,0,.47-1.39,2,2,0,0,0-.47-1.37,1.56,1.56,0,0,0-1.19-.51A1.61,1.61,0,0,0,111.59,91.32Z"/><path class="cls-2" d="M126.6,89a4.38,4.38,0,0,1,1.52,2.74h-3.4a1.28,1.28,0,0,0-.41-.73,1.16,1.16,0,0,0-.78-.25,1.12,1.12,0,0,0-1,.49,2.41,2.41,0,0,0-.37,1.45,2.35,2.35,0,0,0,.37,1.45,1.12,1.12,0,0,0,1,.49,1.16,1.16,0,0,0,.78-.25,1.28,1.28,0,0,0,.41-.73h3.4a4.38,4.38,0,0,1-1.52,2.74,4.5,4.5,0,0,1-3,1,5.11,5.11,0,0,1-2.42-.56,4,4,0,0,1-1.64-1.64,5.59,5.59,0,0,1,0-5,3.91,3.91,0,0,1,1.65-1.62,5,5,0,0,1,2.41-.57A4.55,4.55,0,0,1,126.6,89Z"/><path class="cls-2" d="M135.12,97.29l-2.49-3.79v3.79h-3.22V85.21h3.22v6.48l2.51-3.56h3.74l-3.56,4.59L139,97.29Z"/><path class="cls-2" d="M146.24,88.9a3.77,3.77,0,0,1,1.35,2.33h-3a1.18,1.18,0,0,0-.46-.73,1.43,1.43,0,0,0-.86-.25.82.82,0,0,0-.55.16.53.53,0,0,0-.19.43.55.55,0,0,0,.4.51,9,9,0,0,0,1.32.39,11.35,11.35,0,0,1,1.75.49,2.89,2.89,0,0,1,1.21.84,2.58,2.58,0,0,1,.07,3,2.86,2.86,0,0,1-1.28,1,6,6,0,0,1-5.05-.48,3.53,3.53,0,0,1-1.39-2.39h3.09a1,1,0,0,0,.43.76,1.66,1.66,0,0,0,.92.24.86.86,0,0,0,.57-.16.51.51,0,0,0,.2-.43.6.6,0,0,0-.42-.57,6.91,6.91,0,0,0-1.33-.36,11.36,11.36,0,0,1-1.71-.46,2.87,2.87,0,0,1-1.17-.82,2.28,2.28,0,0,1-.5-1.56,2.49,2.49,0,0,1,1-2,4.18,4.18,0,0,1,2.74-.79A4.42,4.42,0,0,1,146.24,88.9Z"/><path class="cls-3" d="M31.1,71.56h6.14V75.7H25.63V56H31.1Z"/><path class="cls-3" d="M44.77,56V75.7H39.3V56Z"/><path class="cls-3" d="M66,75.7H60.5l-7.22-11v11H47.8V56.05h5.48L60.5,67.17V56.05H66Z"/><path class="cls-3" d="M79.65,65.64,87.26,75.7H80.68L74.48,67v8.7H69V56h5.48v8.51L80.73,56h6.53Z"/><path class="cls-3" d="M94.54,60.38v3.26h6.37v4.14H94.54v3.55h7.2V75.7H89.07V56h12.67v4.36Z"/><path class="cls-3" d="M121.05,70.9a9,9,0,0,1-3.55,3.52,11.05,11.05,0,0,1-5.42,1.28h-7.84V56h7.84a11.33,11.33,0,0,1,5.43,1.24,8.61,8.61,0,0,1,3.56,3.46,10.32,10.32,0,0,1,1.23,5.08A10.2,10.2,0,0,1,121.05,70.9Zm-5.67-1.4a5.59,5.59,0,0,0,0-7.38,5.28,5.28,0,0,0-3.8-1.32h-1.86v10h1.86A5.32,5.32,0,0,0,115.38,69.5Z"/><path class="cls-3" d="M130.22,56V75.7h-5.47V56Z"/><path class="cls-3" d="M151.43,75.7H146l-7.22-11v11h-5.48V56.05h5.48L146,67.17V56.05h5.48Z"/><path class="cls-3" d="M158.4,61.16V56h8.67V75.7h-5.72V61.16Z"/><path class="cls-3" d="M169.6,65.64a12.06,12.06,0,0,1,2-7.27q2-2.68,6.1-2.68t6.11,2.69a12,12,0,0,1,2,7.26,12.06,12.06,0,0,1-2,7.28q-2,2.68-6.11,2.69t-6.1-2.69A12.13,12.13,0,0,1,169.6,65.64Zm10.76,0a9.14,9.14,0,0,0-.55-3.53,2.47,2.47,0,0,0-4.3,0,9,9,0,0,0-.55,3.53,9,9,0,0,0,.55,3.55,2.47,2.47,0,0,0,4.3,0A9.22,9.22,0,0,0,180.36,65.64Z"/><path class="cls-3" d="M187,61.16V56h8.68V75.7H190V61.16Z"/><path class="cls-3" d="M33.71,83.73v2.56H30.59v9h-3.2v-9H24.3V83.73Z"/><path class="cls-3" d="M39.34,86.54a3.26,3.26,0,0,1,1.73-.49v3.42h-.93a2.61,2.61,0,0,0-1.62.42A1.73,1.73,0,0,0,38,91.34v4H34.77V86.13H38v1.71A4.12,4.12,0,0,1,39.34,86.54Z"/><path class="cls-3" d="M42.39,82.41A2,2,0,0,1,43.76,82a1.93,1.93,0,0,1,1.36.46,1.54,1.54,0,0,1,.5,1.19,1.47,1.47,0,0,1-.51,1.14,1.92,1.92,0,0,1-1.35.46,2,2,0,0,1-1.37-.46,1.45,1.45,0,0,1-.52-1.14A1.52,1.52,0,0,1,42.39,82.41Zm3,3.72v9.16H42.13V86.13Z"/><path class="cls-3" d="M54.29,87a4.38,4.38,0,0,1,1.52,2.74H52.42A1.35,1.35,0,0,0,52,89a1.16,1.16,0,0,0-.78-.25,1.12,1.12,0,0,0-.95.49,2.41,2.41,0,0,0-.37,1.45,2.35,2.35,0,0,0,.37,1.45,1.12,1.12,0,0,0,.95.49,1.16,1.16,0,0,0,.78-.25,1.35,1.35,0,0,0,.42-.73h3.39a4.38,4.38,0,0,1-1.52,2.74,4.5,4.5,0,0,1-3,1,5.11,5.11,0,0,1-2.42-.56,4,4,0,0,1-1.64-1.64,5.59,5.59,0,0,1,0-5,3.91,3.91,0,0,1,1.65-1.62A5,5,0,0,1,51.3,86,4.55,4.55,0,0,1,54.29,87Z"/><path class="cls-3" d="M62.81,95.29,60.32,91.5v3.79H57.1V83.21h3.22v6.48l2.51-3.56h3.74L63,90.72l3.66,4.57Z"/><path class="cls-3" d="M73.93,86.9a3.83,3.83,0,0,1,1.36,2.33h-3a1.14,1.14,0,0,0-.46-.73,1.43,1.43,0,0,0-.86-.25.82.82,0,0,0-.55.16.53.53,0,0,0-.19.43.55.55,0,0,0,.4.51,9,9,0,0,0,1.32.39,11.35,11.35,0,0,1,1.75.49,2.89,2.89,0,0,1,1.21.84,2.36,2.36,0,0,1,.52,1.59A2.44,2.44,0,0,1,75,94.08a2.94,2.94,0,0,1-1.29,1,6,6,0,0,1-5-.48,3.53,3.53,0,0,1-1.39-2.39h3.09a1,1,0,0,0,.43.76,1.66,1.66,0,0,0,.92.24.91.91,0,0,0,.58-.16.53.53,0,0,0,.19-.43A.6.6,0,0,0,72,92a6.91,6.91,0,0,0-1.33-.36A11.36,11.36,0,0,1,69,91.2a2.87,2.87,0,0,1-1.17-.82,2.28,2.28,0,0,1-.49-1.56,2.48,2.48,0,0,1,1-2A4.18,4.18,0,0,1,71,86,4.42,4.42,0,0,1,73.93,86.9Z"/><path class="cls-3" d="M87.1,95.29l-1-1.26a3.28,3.28,0,0,1-.3.33,3,3,0,0,1-1.1.76,3.73,3.73,0,0,1-1.49.28,4.17,4.17,0,0,1-2.07-.48,3.18,3.18,0,0,1-1.31-1.31,3.87,3.87,0,0,1-.44-1.83,3.61,3.61,0,0,1,.69-2.25,3,3,0,0,1,1.79-1.15l-.2-.34a3.68,3.68,0,0,1-.39-1.59,2.56,2.56,0,0,1,.41-1.38A2.9,2.9,0,0,1,82.9,84a4.26,4.26,0,0,1,1.9-.4c1.85,0,3,.74,3.53,2.21a5,5,0,0,1,.23,1.78h-3a3.6,3.6,0,0,0,0-.64c0-.46-.25-.69-.65-.69a.57.57,0,0,0-.42.15.53.53,0,0,0-.15.39.87.87,0,0,0,.09.4,4.81,4.81,0,0,0,.33.52l5.58,7.56ZM84,92.45a1,1,0,0,0,.3-.74A.94.94,0,0,0,84,91a1.17,1.17,0,0,0-.8-.29,1.07,1.07,0,0,0-.76.27,1,1,0,0,0-.3.74,1,1,0,0,0,.31.76,1.22,1.22,0,0,0,1.58,0Z"/><path class="cls-3" d="M104.57,83.73V95.29h-3.2V90.62H97.45v4.67H94.24V83.73h3.21v4.32h3.92V83.73Z"/><path class="cls-3" d="M111.42,86.43a2.6,2.6,0,0,1,1,1.15V86.13h3.2v9.16h-3.2V93.83a2.54,2.54,0,0,1-1,1.15,3.21,3.21,0,0,1-1.67.42,3.65,3.65,0,0,1-2-.56,3.83,3.83,0,0,1-1.39-1.64,6.5,6.5,0,0,1,0-5,3.77,3.77,0,0,1,1.39-1.62,3.58,3.58,0,0,1,2-.57A3.21,3.21,0,0,1,111.42,86.43Zm-1.83,2.89a2.32,2.32,0,0,0,0,2.77,1.7,1.7,0,0,0,2.41,0,2,2,0,0,0,.47-1.39,2,2,0,0,0-.47-1.37,1.56,1.56,0,0,0-1.19-.51A1.61,1.61,0,0,0,109.59,89.32Z"/><path class="cls-3" d="M124.6,87a4.38,4.38,0,0,1,1.52,2.74h-3.4a1.28,1.28,0,0,0-.41-.73,1.16,1.16,0,0,0-.78-.25,1.12,1.12,0,0,0-1,.49,2.41,2.41,0,0,0-.37,1.45,2.35,2.35,0,0,0,.37,1.45,1.12,1.12,0,0,0,1,.49,1.16,1.16,0,0,0,.78-.25,1.28,1.28,0,0,0,.41-.73h3.4a4.38,4.38,0,0,1-1.52,2.74,4.5,4.5,0,0,1-3,1,5.11,5.11,0,0,1-2.42-.56,4,4,0,0,1-1.64-1.64,5.59,5.59,0,0,1,0-5,3.91,3.91,0,0,1,1.65-1.62,5,5,0,0,1,2.41-.57A4.55,4.55,0,0,1,124.6,87Z"/><path class="cls-3" d="M133.12,95.29l-2.49-3.79v3.79h-3.22V83.21h3.22v6.48l2.51-3.56h3.74l-3.56,4.59L137,95.29Z"/><path class="cls-3" d="M144.24,86.9a3.77,3.77,0,0,1,1.35,2.33h-3a1.18,1.18,0,0,0-.46-.73,1.43,1.43,0,0,0-.86-.25.82.82,0,0,0-.55.16.53.53,0,0,0-.19.43.55.55,0,0,0,.4.51,9,9,0,0,0,1.32.39,11.35,11.35,0,0,1,1.75.49,2.89,2.89,0,0,1,1.21.84,2.58,2.58,0,0,1,.07,3,2.86,2.86,0,0,1-1.28,1,6,6,0,0,1-5.05-.48,3.53,3.53,0,0,1-1.39-2.39h3.09a1,1,0,0,0,.43.76,1.66,1.66,0,0,0,.92.24.86.86,0,0,0,.57-.16.51.51,0,0,0,.2-.43.6.6,0,0,0-.42-.57,6.91,6.91,0,0,0-1.33-.36,11.36,11.36,0,0,1-1.71-.46,2.87,2.87,0,0,1-1.17-.82,2.28,2.28,0,0,1-.5-1.56,2.49,2.49,0,0,1,1-2,4.18,4.18,0,0,1,2.74-.79A4.42,4.42,0,0,1,144.24,86.9Z"/></svg>