<svg id="Layer_1" data-name="Layer 1" xmlns="http://www.w3.org/2000/svg" viewBox="0 0 220 150"><defs><style>.cls-1{fill:#603de0;}.cls-2{fill:#ff9292;}.cls-3{fill:#f1f1f1;}</style></defs><title>recursosDestacados</title><rect class="cls-1" width="220" height="150"/><path class="cls-2" d="M113.16,49.89c-7.2-1.6-14.77-1.38-21.76-3.7C82,43.05,74.67,35.71,66.69,29.79S48.48,19.11,39.05,22.24C26.48,26.4,22.15,41.65,19.69,54.66q-3.95,20.75-7.87,41.49c-1.39,7.35-2.7,15.35.8,22,4.44,8.39,14.85,11.36,24.22,12.91,37.18,6.18,135,10.63,107.29-55.29A44.69,44.69,0,0,0,113.16,49.89Z"/><path class="cls-3" d="M78.36,64.2a5.78,5.78,0,0,1-2.46,2.12,8.76,8.76,0,0,1-3.89.79,9.24,9.24,0,0,1-5.66-1.65,6,6,0,0,1-2.42-4.7h5.85a2.22,2.22,0,0,0,.64,1.54,2,2,0,0,0,1.37.5,1.65,1.65,0,0,0,1.13-.36,1.34,1.34,0,0,0,.41-1A1.53,1.53,0,0,0,72.52,60a13.27,13.27,0,0,0-2.58-1.08,25,25,0,0,1-3.09-1.26,5.7,5.7,0,0,1-2.09-1.84,6,6,0,0,1,.07-6.34,5.92,5.92,0,0,1,2.6-2,9.63,9.63,0,0,1,3.74-.68,8.51,8.51,0,0,1,5.44,1.6,6,6,0,0,1,2.23,4.52h-5.9a2.23,2.23,0,0,0-.58-1.37,1.66,1.66,0,0,0-1.21-.45,1.4,1.4,0,0,0-1,.34,1.3,1.3,0,0,0-.36,1,1.47,1.47,0,0,0,.79,1.32,14,14,0,0,0,2.51,1.06,25.72,25.72,0,0,1,3.1,1.32A6,6,0,0,1,78.3,58a5.26,5.26,0,0,1,.9,3.19A5.53,5.53,0,0,1,78.36,64.2Z"/><path class="cls-3" d="M90.28,51.74a4.36,4.36,0,0,1,1.81,2V51.22h5.48V66.91H92.09V64.42a4.31,4.31,0,0,1-1.81,2,5.5,5.5,0,0,1-2.86.72,6.15,6.15,0,0,1-3.38-1,6.5,6.5,0,0,1-2.38-2.79,10,10,0,0,1-.87-4.3,9.77,9.77,0,0,1,.87-4.27A6.56,6.56,0,0,1,84,52a6.14,6.14,0,0,1,3.38-1A5.59,5.59,0,0,1,90.28,51.74Zm-3.13,4.95a4,4,0,0,0,0,4.75,2.73,2.73,0,0,0,2.09.86,2.67,2.67,0,0,0,2-.87,3.86,3.86,0,0,0,0-4.73,2.92,2.92,0,0,0-4.13,0Z"/><path class="cls-3" d="M106.1,46.22V66.91h-5.51V46.22Z"/><path class="cls-3" d="M124.07,60.06H113.7c.09,1.77.87,2.66,2.32,2.66a2.13,2.13,0,0,0,1.34-.4,1.91,1.91,0,0,0,.73-1h5.82a6.72,6.72,0,0,1-1.37,3,7.41,7.41,0,0,1-2.69,2.08,8.34,8.34,0,0,1-3.55.76,8.71,8.71,0,0,1-4.15-1,6.81,6.81,0,0,1-2.81-2.79,8.84,8.84,0,0,1-1-4.3,8.67,8.67,0,0,1,1-4.27A6.83,6.83,0,0,1,112.16,52a9.45,9.45,0,0,1,8.28,0,6.78,6.78,0,0,1,2.78,2.71,8.22,8.22,0,0,1,1,4.08A6.18,6.18,0,0,1,124.07,60.06ZM118,56a2.4,2.4,0,0,0-1.68-.62,2.53,2.53,0,0,0-1.77.62,2.65,2.65,0,0,0-.8,1.82h4.89A2.26,2.26,0,0,0,118,56Z"/><path class="cls-3" d="M137.33,52.54a6.61,6.61,0,0,1,2.32,4H134.5a2,2,0,0,0-.79-1.26,2.5,2.5,0,0,0-1.47-.42,1.5,1.5,0,0,0-.94.26.94.94,0,0,0-.32.75,1,1,0,0,0,.69.88,14.9,14.9,0,0,0,2.25.65,21.15,21.15,0,0,1,3,.84A5.13,5.13,0,0,1,139,59.7a4,4,0,0,1,.88,2.71,4.12,4.12,0,0,1-.75,2.43,5,5,0,0,1-2.2,1.66,8.59,8.59,0,0,1-3.39.61,8.75,8.75,0,0,1-5.26-1.43,6,6,0,0,1-2.38-4.08h5.29a1.69,1.69,0,0,0,.74,1.28,2.77,2.77,0,0,0,1.58.42,1.49,1.49,0,0,0,1-.28.9.9,0,0,0,.33-.72,1,1,0,0,0-.71-1,12.32,12.32,0,0,0-2.28-.62,19.49,19.49,0,0,1-2.94-.79,5.09,5.09,0,0,1-2-1.4,4,4,0,0,1-.85-2.67,4.27,4.27,0,0,1,1.65-3.47,7.31,7.31,0,0,1,4.7-1.34A7.56,7.56,0,0,1,137.33,52.54Z"/><path class="cls-3" d="M69.94,93.84v6.62H64.43V80.67h8.23a7.62,7.62,0,0,1,5.46,1.8A6.35,6.35,0,0,1,80,87.29a6.7,6.7,0,0,1-.84,3.36A5.77,5.77,0,0,1,76.67,93a8.7,8.7,0,0,1-4,.86Zm4.51-6.55c0-1.45-.81-2.18-2.41-2.18h-2.1V89.5H72C73.64,89.5,74.45,88.77,74.45,87.29Z"/><path class="cls-3" d="M87.67,79.77v20.69H82.16V79.77Z"/><path class="cls-3" d="M99.4,85.29a4.42,4.42,0,0,1,1.8,2V84.78h5.48v15.68H101.2V98a4.42,4.42,0,0,1-1.8,2,5.63,5.63,0,0,1-2.87.71,6.09,6.09,0,0,1-3.38-1,6.5,6.5,0,0,1-2.38-2.79,11.11,11.11,0,0,1,0-8.57,6.53,6.53,0,0,1,2.38-2.78,6.09,6.09,0,0,1,3.38-1A5.63,5.63,0,0,1,99.4,85.29Zm-3.13,4.95a3.35,3.35,0,0,0-.8,2.37,3.38,3.38,0,0,0,.8,2.39,2.7,2.7,0,0,0,2.08.85,2.67,2.67,0,0,0,2-.87,3.84,3.84,0,0,0,0-4.72,2.67,2.67,0,0,0-2-.87A2.73,2.73,0,0,0,96.27,90.24Z"/><path class="cls-3" d="M124.44,86.44A7.35,7.35,0,0,1,126,91.35v9.11h-5.46V92.05a3,3,0,0,0-.71-2.14,2.78,2.78,0,0,0-3.87,0,3.1,3.1,0,0,0-.73,2.19v8.33H109.7V84.78h5.51v2.63a5.14,5.14,0,0,1,2-2,5.88,5.88,0,0,1,3-.75A5.3,5.3,0,0,1,124.44,86.44Z"/><path class="cls-3" d="M149.45,92a5.3,5.3,0,0,1-.69,7,7.46,7.46,0,0,1-4.89,1.41h-9.79V80.67h9.57A7.5,7.5,0,0,1,148.33,82a4.52,4.52,0,0,1,1.69,3.8,4.68,4.68,0,0,1-.92,3,4.29,4.29,0,0,1-2.43,1.56A4.74,4.74,0,0,1,149.45,92Zm-9.86-3.44h2.77c1.38,0,2.07-.58,2.07-1.73s-.7-1.79-2.1-1.79h-2.74Zm5.26,5.68c0-1.23-.72-1.85-2.15-1.85h-3.11v3.64h3.11C144.13,96.05,144.85,95.45,144.85,94.26Z"/><path class="cls-3" d="M158.27,90.91q2.29-2.35,2.29-4.26c0-1.23-.49-1.84-1.48-1.84a1.29,1.29,0,0,0-1.21.64,4.5,4.5,0,0,0-.41,2.12h-5.34a7,7,0,0,1,7.41-7.38,6.67,6.67,0,0,1,5,1.68,5.86,5.86,0,0,1,1.62,4.25,8.52,8.52,0,0,1-2,5.31,18.26,18.26,0,0,1-4.85,4.34h7.1v4.44H152.15V96.1A49.48,49.48,0,0,0,158.27,90.91Z"/><path class="cls-3" d="M184,92a5.3,5.3,0,0,1-.69,7,7.46,7.46,0,0,1-4.89,1.41h-9.78V80.67h9.56A7.5,7.5,0,0,1,182.86,82a4.52,4.52,0,0,1,1.69,3.8,4.62,4.62,0,0,1-.92,3,4.29,4.29,0,0,1-2.43,1.56A4.74,4.74,0,0,1,184,92Zm-9.86-3.44h2.77c1.38,0,2.07-.58,2.07-1.73s-.7-1.79-2.1-1.79h-2.74Zm5.26,5.68c0-1.23-.72-1.85-2.15-1.85h-3.11v3.64h3.11C178.66,96.05,179.38,95.45,179.38,94.26Z"/></svg>